<svg xmlns="http://www.w3.org/2000/svg" xmlns:xlink="http://www.w3.org/1999/xlink" width="1920" height="3806" viewBox="0 0 1920 3806"><defs><style>.a{fill:#fff;stroke:#707070;}.b{clip-path:url(#a);}.c{fill:#fbfeff;}.d{fill:url(#b);}.e{mix-blend-mode:multiply;fill:url(#c);}.e,.f,.v,.w{isolation:isolate;}.f,.s,.t{opacity:0.4;}.g{fill:#7ab1d4;}.h,.q,.s{fill:#79b6dc;}.i{fill:#247dc1;}.j,.p{fill:#439bd0;}.k{fill:#163c91;}.l{fill:#53a8cf;}.m,.r{fill:#a5c6dd;}.n{fill:#d9dee4;}.o{fill:#c3d4e1;}.p,.r,.w,.x{opacity:0.6;}.q,.u,.v{opacity:0.8;}.y{filter:url(#j);}.z{filter:url(#h);}.aa{filter:url(#f);}.ab{filter:url(#d);}</style><clipPath id="a"><rect class="a" width="1920" height="3806"/></clipPath><radialGradient id="b" cx="0.5" cy="0.415" r="0.738" gradientTransform="matrix(-1, -0.001, 0.002, -2.946, 0.999, 2.563)" gradientUnits="objectBoundingBox"><stop offset="0" stop-color="#239de8"/><stop offset="1" stop-color="#005386"/></radialGradient><radialGradient id="c" cx="0.725" cy="0.684" r="0.725" gradientTransform="matrix(-1, -0.004, 0.007, -1.801, 1.445, 1.918)" xlink:href="#b"/><filter id="d" x="-64.774" y="-18.16" width="470.213" height="505.48" filterUnits="userSpaceOnUse"><feOffset dx="110" dy="143" input="SourceAlpha"/><feGaussianBlur stdDeviation="18" result="e"/><feFlood flood-opacity="0.102"/><feComposite operator="in" in2="e"/><feComposite in="SourceGraphic"/></filter><filter id="f" x="1653.299" y="2891.95" width="515.347" height="516.964" filterUnits="userSpaceOnUse"><feOffset dx="110" dy="143" input="SourceAlpha"/><feGaussianBlur stdDeviation="49.5" result="g"/><feFlood flood-opacity="0.102"/><feComposite operator="in" in2="g"/><feComposite in="SourceGraphic"/></filter><filter id="h" x="17.66" y="1232.649" width="375.345" height="409.91" filterUnits="userSpaceOnUse"><feOffset dx="110" dy="143" input="SourceAlpha"/><feGaussianBlur stdDeviation="18" result="i"/><feFlood flood-opacity="0.102"/><feComposite operator="in" in2="i"/><feComposite in="SourceGraphic"/></filter><filter id="j" x="1887" y="2454.649" width="310.005" height="344.086" filterUnits="userSpaceOnUse"><feOffset dx="110" dy="143" input="SourceAlpha"/><feGaussianBlur stdDeviation="18" result="k"/><feFlood flood-opacity="0.102"/><feComposite operator="in" in2="k"/><feComposite in="SourceGraphic"/></filter></defs><g class="b"><path class="c" d="M0,0H1920l-1.031,3781H-1Z" transform="translate(0 -2)"/><path class="d" d="M0-41.041,1920,145.375v911.543H0Z" transform="translate(0 2849.082)"/><path class="e" d="M0,0H1920V612.293L0,909.142Z" transform="translate(0 -2)"/><g class="f" transform="translate(-1210.33 -191.396)"><g class="ab" transform="matrix(1, 0, 0, 1, 1210.33, 191.4)"><path class="g" d="M138.21,308.264,50.539,272.777l4.7-.151-5.046.151L0,191.565l3.226-63.949,8.415,6.633-8.413-6.633,1.016-.919-1.016.917L5.263,93.8l66.4-72.511L112.051,0,71.195,66.16l.062-.056,0,.085.234-.055L111.99.11l.045.026L167.3,1.258,252,32.28,271.36,58.532l.1.021.011-.028.024.035.009,0,0,.007,34.714,50.557-2.648,99.028-13.9,6.768,13.781-6.651-64.6,74.571-.165.383L138.472,308.48ZM93.789,271.318l75.36-54h0l-75.36,54ZM68.148,178.793l-1.667-.636,0,.014ZM242.581,131.24h0l-.175-.266Z" transform="translate(-64.77 -18.16)"/></g><g transform="translate(1145.555 173.392)"><path class="g" d="M93.515,0l89.97,62.421L148.553,169.632,37.226,171.813,0,66.3Z" transform="matrix(0.927, 0.375, -0.375, 0.927, 95.925, 4.756)"/><path class="h" d="M8126.76-7389.384l-28.836,72.8-60.37-91.614Z" transform="translate(-7855.258 7447.948)"/><path class="i" d="M8018.27-7181.736l92.508,11.325-19.654-96.871Z" transform="translate(-7848.517 7398.689)"/><path class="j" d="M8149.864-7209.581c1.059-.529,41.307-20.123,41.307-20.123l2.646-99.028-34.746-50.6-28.986,72.97Z" transform="translate(-7887.605 7437.858)"/><path class="k" d="M7901.282-7081.369l76.175-54.585,92.53,11.369-23.688,55.029L7946.09-7044.3Z" transform="translate(-7807.621 7352.78)"/><path class="l" d="M8124.109-7074.249l64.854-74.857-41.275,19.923Z" transform="translate(-7885.515 7357.377)"/><path class="i" d="M7859.32-7195.451l27.292,93.285,76.176-54.586Z" transform="translate(-7792.952 7373.578)"/><path class="h" d="M7830.273-7367.682l-68.028,61.512,63.545,50.1Z" transform="translate(-7759.017 7433.786)"/><path class="m" d="M7907.57-7469.141l-40.736,66.4,111.211-26.48Z" transform="translate(-7795.579 7469.252)"/><path class="n" d="M7830.024-7402.848l41.045-66.465-40.392,21.295-66.4,72.51-2.035,33.81Z" transform="translate(-7759.017 7469.313)"/><path class="j" d="M7760.51-7273.111l-3.229,63.951,50.19,81.211,43.644-1.312-27.608-94.19Z" transform="translate(-7757.281 7400.726)"/><path class="l" d="M7834.984-7050.68l87.833,35.551-44.613-36.946Z" transform="translate(-7784.444 7323.458)"/><path class="o" d="M8088.876-7410.645l-19.406-26.315-84.7-31.02-55.315-1.124,70.463,39.965Z" transform="translate(-7817.47 7469.24)"/></g></g><g transform="translate(-10169.808 7208.84)"><path class="i" d="M9367.867-6289.127,9476-6366.155l-36.934,77.278Z" transform="translate(1069.773 -85.008)"/><path class="j" d="M9574.969-6289.963,9674.313-6266l-62.354-101.234Z" transform="translate(933.795 -83.955)"/><path class="k" d="M9444.3-6044.025l-4.579-97.268-71.142-.243Z" transform="translate(1069.095 -232.593)"/><path class="i" d="M9674.39-6117.254l-99.353-23.966,4.59,97.286Z" transform="translate(933.75 -232.695)"/><path class="p" d="M9491.73-6109.593l-48.169,65.207-75.759-97.548Z" transform="translate(1069.815 -232.227)"/><path class="q" d="M9680.143-6072.366l-46.574,8.124-48.166,65.19Z" transform="translate(927.974 -277.56)"/><path class="r" d="M9473.038-6365.021l15.747,109.293-123.926-32.343Z" transform="translate(1072.778 -86.096)"/><path class="s" d="M9679.861-6365.021l62.316,101.175-46.641,8.132Z" transform="translate(865.955 -86.096)"/></g><g class="t" transform="translate(-8723.279 6632.068)"><path class="i" d="M9367.867-6297.23l96.758-68.925-33.047,69.149Z" transform="translate(1069.77 -85.011)"/><path class="j" d="M9574.969-6298.091l88.895,21.44-55.795-90.585Z" transform="translate(926.311 -83.955)"/><path class="k" d="M9436.336-6054.281l-4.1-87.037-63.658-.218Z" transform="translate(1069.088 -240.699)"/><path class="i" d="M9663.939-6119.775l-88.9-21.445,4.107,87.053Z" transform="translate(926.263 -240.823)"/><path class="p" d="M9478.7-6112.994l-43.1,58.348-67.791-87.287Z" transform="translate(1069.815 -240.329)"/><path class="q" d="M9670.178-6072.366l-41.677,7.27-43.1,58.333Z" transform="translate(920.005 -288.212)"/><path class="r" d="M9461.659-6365.021l14.09,97.8-110.89-28.941Z" transform="translate(1072.776 -86.104)"/><path class="s" d="M9679.861-6365.021l55.762,90.533-41.734,7.276Z" transform="translate(854.573 -86.104)"/></g><g class="t" transform="translate(-9604.33 6391.068)"><path class="i" d="M9367.867-6279.622l121.477-86.534-41.49,86.814Z" transform="translate(1069.775 -85.004)"/><path class="j" d="M9574.969-6280.427l111.6,26.918-70.049-113.728Z" transform="translate(942.574 -83.955)"/><path class="k" d="M9453.645-6031.991l-5.144-109.271-79.921-.273Z" transform="translate(1069.102 -223.083)"/><path class="i" d="M9686.65-6114.3l-111.613-26.924,5.156,109.292Z" transform="translate(942.532 -223.158)"/><path class="p" d="M9507.024-6105.6l-54.112,73.254L9367.8-6141.934Z" transform="translate(1069.815 -222.721)"/><path class="q" d="M9691.835-6072.366l-52.323,9.126L9585.4-5990Z" transform="translate(937.323 -265.063)"/><path class="r" d="M9486.388-6365.021l17.69,122.781-139.219-36.334Z" transform="translate(1072.78 -86.087)"/><path class="s" d="M9679.861-6365.021l70.007,113.661-52.4,9.135Z" transform="translate(879.307 -86.087)"/></g><g class="u" transform="translate(-9681.33 6513.068)"><path class="i" d="M9367.867-6338.124l39.351-28.031-13.44,28.122Z" transform="translate(1069.758 -85.025)"/><path class="j" d="M9574.969-6339.116l36.152,8.72-22.691-36.84Z" transform="translate(888.539 -83.955)"/><path class="k" d="M9396.136-6106.051l-1.667-35.4-25.889-.089Z" transform="translate(1069.058 -281.611)"/><path class="i" d="M9611.192-6132.5l-36.155-8.722,1.67,35.4Z" transform="translate(888.479 -281.848)"/><path class="p" d="M9412.9-6130.165l-17.528,23.729-27.57-35.5Z" transform="translate(1069.815 -281.225)"/><path class="q" d="M9619.879-6072.366l-16.949,2.956-17.527,23.724Z" transform="translate(879.784 -341.973)"/><path class="r" d="M9404.227-6365.021l5.73,39.772-45.1-11.77Z" transform="translate(1072.765 -86.143)"/><path class="s" d="M9679.861-6365.021l22.678,36.818-16.973,2.959Z" transform="translate(797.13 -86.143)"/></g><g class="v" transform="translate(546.244 2724.213)"><g class="aa" transform="matrix(1, 0, 0, 1, -546.24, -2724.21)"><path class="g" d="M98.551,219.809,36.037,194.5l3.349-.108-3.6.108L0,136.6,2.3,91l6,4.73L2.3,91l.725-.655L2.3,91,3.752,66.887,51.1,15.183,79.9,0,50.766,47.176l.044-.04,0,.061.167-.04L79.855.079,79.887.1,119.3.9l60.393,22.12,13.806,18.719.07.015.008-.02.017.025h.006l0,0,24.753,36.05-1.888,70.612-9.911,4.826,9.827-4.743-46.066,53.173-.118.273L98.738,219.964ZM66.877,193.465l53.736-38.506h0l-53.736,38.5ZM48.593,127.489l-1.189-.453,0,.01Zm124.38-33.908h0l-.125-.189Z" transform="translate(1691.8 2897.45)"/></g><g transform="translate(1145.555 173.347)"><path class="g" d="M66.681,0l64.153,44.51-24.908,76.447-79.383,1.555L0,47.277Z" transform="matrix(0.927, 0.375, -0.375, 0.927, 68.4, 3.392)"/><path class="h" d="M8101.162-7394.781l-20.562,51.912-43.046-65.325Z" transform="translate(-7907.567 7436.541)"/><path class="i" d="M8018.269-7206.282l65.964,8.076-14.015-69.074Z" transform="translate(-7897.225 7360.98)"/><path class="j" d="M8144.187-7258.289c.756-.378,29.454-14.35,29.454-14.35l1.886-70.613-24.774-36.082-20.67,52.032Z" transform="translate(-7957.181 7421.065)"/><path class="k" d="M7901.28-7097.031l54.316-38.922,65.98,8.106-16.892,39.239-71.453,18.008Z" transform="translate(-7834.495 7290.562)"/><path class="l" d="M8124.109-7095.728l46.245-53.377-29.432,14.206Z" transform="translate(-7953.978 7297.613)"/><path class="i" d="M7859.319-7195.45l19.461,66.517,54.318-38.923Z" transform="translate(-7811.995 7322.464)"/><path class="h" d="M7810.751-7367.681l-48.507,43.861,45.312,35.727Z" transform="translate(-7759.943 7414.816)"/><path class="m" d="M7895.881-7469.139l-29.048,47.348,79.3-18.882Z" transform="translate(-7816.024 7469.219)"/><path class="n" d="M7810.575-7421.919l29.266-47.393-28.8,15.185-47.345,51.7-1.451,24.108Z" transform="translate(-7759.943 7469.312)"/><path class="j" d="M7759.583-7273.111l-2.3,45.6,35.788,57.908,31.12-.936L7804.5-7237.7Z" transform="translate(-7757.281 7364.107)"/><path class="l" d="M7834.983-7051.08l62.63,25.35-31.812-26.345Z" transform="translate(-7798.946 7245.586)"/><path class="o" d="M8043.131-7427.419l-13.839-18.764L7968.9-7468.3l-39.442-.8,50.244,28.5Z" transform="translate(-7849.603 7469.2)"/></g></g><g class="t" transform="translate(-8691.808 8219.84)"><path class="i" d="M9367.866-6272.563l131.385-93.591-44.875,93.9Z" transform="translate(1069.778 -85.002)"/><path class="j" d="M9574.969-6273.346l120.707,29.114-75.764-123Z" transform="translate(949.093 -83.955)"/><path class="k" d="M9460.582-6023.057l-5.563-118.184-86.439-.295Z" transform="translate(1069.108 -216.023)"/><path class="i" d="M9695.754-6112.1l-120.717-29.12,5.576,118.206Z" transform="translate(949.053 -216.078)"/><path class="p" d="M9518.379-6102.638l-58.527,79.229L9367.8-6141.933Z" transform="translate(1069.815 -215.663)"/><path class="q" d="M9700.515-6072.366l-56.59,9.871-58.523,79.208Z" transform="translate(944.266 -255.785)"/><path class="r" d="M9496.3-6365.02l19.134,132.794-150.574-39.3Z" transform="translate(1072.782 -86.081)"/><path class="s" d="M9679.861-6365.02l75.716,122.931-56.67,9.88Z" transform="translate(889.221 -86.081)"/></g><g class="u" transform="translate(-8727.789 8391.691)"><path class="i" d="M9367.866-6342.145l33.706-24.01-11.513,24.088Z" transform="translate(1069.759 -85.027)"/><path class="j" d="M9574.969-6343.149l30.966,7.469-19.437-31.555Z" transform="translate(884.826 -83.955)"/><path class="k" d="M9392.182-6111.141l-1.428-30.319-22.175-.076Z" transform="translate(1069.057 -285.635)"/><path class="i" d="M9606.006-6133.75l-30.969-7.471,1.431,30.325Z" transform="translate(884.765 -285.884)"/><path class="p" d="M9406.432-6131.853l-15.015,20.325-23.614-30.406Z" transform="translate(1069.815 -285.247)"/><path class="q" d="M9614.933-6072.366l-14.518,2.532-15.014,20.32Z" transform="translate(875.831 -347.26)"/><path class="r" d="M9398.579-6365.02l4.909,34.067-38.629-10.081Z" transform="translate(1072.765 -86.148)"/><path class="s" d="M9679.861-6365.02l19.424,31.537-14.537,2.535Z" transform="translate(791.483 -86.148)"/></g><g class="f" transform="translate(-1127.896 1059.412)"><g class="z" transform="matrix(1, 0, 0, 1, 1127.9, -1059.41)"><path class="g" d="M95.391,212.761l-60.51-24.493,3.242-.1-3.483.1L0,132.216,2.226,88.079l5.808,4.578L2.228,88.079l.7-.634-.7.633,1.4-23.335L49.46,14.7,77.337,0l-28.2,45.663.043-.038,0,.059.161-.038L77.294.076l.031.018L115.47.869l58.457,21.411L187.29,40.4l.068.014.008-.019.017.024h.006l0,0,23.959,34.894-1.827,68.348-9.593,4.671,9.511-4.591-44.589,51.468-.114.264L95.572,212.91Zm-30.659-25.5,52.013-37.271h0l-52.013,37.27Zm-17.7-63.86-1.15-.439,0,.01Zm120.392-32.82h0l-.121-.183Z" transform="translate(17.66 1232.65)"/></g><g transform="translate(1145.555 173.344)"><path class="g" d="M64.543,0l62.1,43.082-24.109,74-76.837,1.505L0,45.761Z" transform="matrix(0.927, 0.375, -0.375, 0.927, 66.207, 3.283)"/><path class="h" d="M8099.123-7395.212l-19.9,50.248-41.667-63.231Z" transform="translate(-7911.734 7435.632)"/><path class="i" d="M8018.27-7208.238l63.848,7.816-13.565-66.859Z" transform="translate(-7901.108 7357.977)"/><path class="j" d="M8143.736-7262.171c.73-.365,28.509-13.889,28.509-13.889l1.827-68.348-23.981-34.925-20.006,50.363Z" transform="translate(-7962.728 7419.727)"/><path class="k" d="M7901.281-7098.279l52.575-37.675,63.864,7.847-16.35,37.98-69.163,17.431Z" transform="translate(-7836.637 7285.605)"/><path class="l" d="M8124.109-7097.44l44.762-51.665-28.488,13.751Z" transform="translate(-7959.434 7292.853)"/><path class="i" d="M7859.32-7195.451l18.836,64.385,52.576-37.675Z" transform="translate(-7813.514 7318.393)"/><path class="h" d="M7809.2-7367.682l-46.953,42.454,43.858,34.582Z" transform="translate(-7760.017 7413.306)"/><path class="m" d="M7894.949-7469.141l-28.115,45.829,76.757-18.276Z" transform="translate(-7817.654 7469.218)"/><path class="n" d="M7809.025-7423.438l28.329-45.874-27.878,14.7-45.827,50.046-1.4,23.335Z" transform="translate(-7760.017 7469.313)"/><path class="j" d="M7759.51-7273.111l-2.229,44.139,34.642,56.051,30.122-.905-19.055-65.009Z" transform="translate(-7757.28 7361.19)"/><path class="l" d="M7834.984-7051.112l60.622,24.537-30.792-25.5Z" transform="translate(-7800.102 7239.382)"/><path class="o" d="M8039.486-7428.756l-13.394-18.162-58.458-21.41-38.178-.775,48.633,27.583Z" transform="translate(-7852.165 7469.197)"/></g></g><g class="w" transform="translate(741.445 2281.412)"><g class="y" transform="matrix(1, 0, 0, 1, -741.44, -2281.41)"><path class="g" d="M65.9,146.982,24.1,130.062l2.24-.072-2.406.072L0,91.34,1.538,60.848,5.55,64.011,1.539,60.848l.485-.438-.485.437.97-16.121L34.168,10.153,53.427,0,33.946,31.546l.029-.027,0,.041.111-.026L53.4.053l.021.012L79.771.6l40.384,14.791,9.232,12.517.047.01.005-.013.011.017h0v0L146,52.032l-1.262,47.217-6.627,3.227,6.571-3.171-30.8,35.556-.079.183L66.024,147.086Zm-21.18-17.616,35.932-25.748h0L44.719,129.366ZM32.493,85.25l-.795-.3,0,.007Zm83.171-22.673h0l-.083-.127Z" transform="translate(1887 2454.65)"/></g><g transform="translate(1145.555 173.311)"><path class="g" d="M44.589,0l42.9,29.763L70.831,80.882,17.75,81.922,0,31.613Z" transform="matrix(0.927, 0.375, -0.375, 0.927, 45.738, 2.268)"/><path class="h" d="M8080.088-7399.226l-13.749,34.713-28.785-43.683Z" transform="translate(-7950.633 7427.15)"/><path class="i" d="M8018.271-7226.492l44.108,5.4-9.372-46.188Z" transform="translate(-7937.331 7329.938)"/><path class="j" d="M8139.516-7298.394c.5-.252,19.695-9.595,19.695-9.595l1.262-47.217-16.567-24.127-13.821,34.792Z" transform="translate(-8014.469 7407.239)"/><path class="k" d="M7901.281-7109.927l36.321-26.027,44.119,5.42-11.295,26.238-47.78,12.042Z" transform="translate(-7856.623 7239.338)"/><path class="l" d="M8124.109-7113.414l30.923-35.692-19.681,9.5Z" transform="translate(-8010.346 7248.411)"/><path class="i" d="M7859.32-7195.452l13.013,44.479L7908.654-7177Z" transform="translate(-7827.676 7280.384)"/><path class="h" d="M7794.681-7367.682l-32.437,29.328,30.3,23.891Z" transform="translate(-7760.706 7399.201)"/><path class="m" d="M7886.257-7469.141l-19.423,31.66,53.026-12.626Z" transform="translate(-7832.859 7469.194)"/><path class="n" d="M7794.563-7437.621l19.57-31.691-19.259,10.153-31.659,34.574-.971,16.12Z" transform="translate(-7760.706 7469.313)"/><path class="j" d="M7758.82-7273.111l-1.54,30.492,23.932,38.722,20.81-.625-13.164-44.91Z" transform="translate(-7757.28 7333.959)"/><path class="l" d="M7834.984-7051.41l41.879,16.95-21.271-17.616Z" transform="translate(-7810.887 7181.474)"/><path class="o" d="M8005.469-7441.23l-9.253-12.547-40.384-14.791-26.375-.536,33.6,19.055Z" transform="translate(-7876.061 7469.168)"/></g></g><g class="x" transform="translate(-10404.809 9088.84)"><path class="i" d="M9367.867-6297.8l95.963-68.358-32.777,68.581Z" transform="translate(1069.77 -85.011)"/><path class="j" d="M9574.969-6298.66l88.163,21.265-55.336-89.841Z" transform="translate(925.787 -83.955)"/><path class="k" d="M9435.778-6055l-4.063-86.32-63.135-.216Z" transform="translate(1069.089 -241.267)"/><path class="i" d="M9663.208-6119.952l-88.171-21.269,4.073,86.336Z" transform="translate(925.74 -241.392)"/><path class="p" d="M9477.783-6113.233l-42.748,57.868-67.232-86.568Z" transform="translate(1069.815 -240.897)"/><path class="q" d="M9669.48-6072.366l-41.333,7.209L9585.4-6007.3Z" transform="translate(919.448 -288.957)"/><path class="r" d="M9460.863-6365.021l13.974,96.992-109.978-28.7Z" transform="translate(1072.776 -86.104)"/><path class="s" d="M9679.861-6365.021l55.3,89.787-41.391,7.217Z" transform="translate(853.777 -86.104)"/></g><g class="x" transform="translate(-10392.809 9802.84)"><path class="i" d="M9367.867-6297.8l95.963-68.358-32.777,68.581Z" transform="translate(1069.77 -85.011)"/><path class="j" d="M9574.969-6298.66l88.163,21.265-55.336-89.841Z" transform="translate(925.787 -83.955)"/><path class="k" d="M9435.778-6055l-4.063-86.32-63.135-.216Z" transform="translate(1069.089 -241.267)"/><path class="i" d="M9663.208-6119.952l-88.171-21.269,4.073,86.336Z" transform="translate(925.74 -241.392)"/><path class="p" d="M9477.783-6113.233l-42.748,57.868-67.232-86.568Z" transform="translate(1069.815 -240.897)"/><path class="q" d="M9669.48-6072.366l-41.333,7.209L9585.4-6007.3Z" transform="translate(919.448 -288.957)"/><path class="r" d="M9460.863-6365.021l13.974,96.992-109.978-28.7Z" transform="translate(1072.776 -86.104)"/><path class="s" d="M9679.861-6365.021l55.3,89.787-41.391,7.217Z" transform="translate(853.777 -86.104)"/></g></g></svg>