<svg xmlns="http://www.w3.org/2000/svg" width="107.726" height="129.317" viewBox="0 0 107.726 129.317"><defs><style>.a{fill:#f8f8fe;}.b{fill:#35b4ff;}.c{fill:#f8cc5c;}.d{fill:#005386;}</style></defs><g transform="translate(-6.998 -2)"><path class="a" d="M21.576,31.844a35.909,35.909,0,0,0-.7,7.039V50.416L8.394,73.614a3.27,3.27,0,0,0,2.879,4.821h9.61V103.7a4.91,4.91,0,0,0,4.91,4.91H48.9v19.4h36.64V97.833l15.734-19.654A46.282,46.282,0,0,0,65.134,3H56.765a35.883,35.883,0,0,0-35.19,28.849Z" transform="translate(1.161 1.155)"/><g transform="translate(32.821 12.776)"><path class="b" d="M81.528,30.708v2.155H72.861V28.553h8.621V22.087H64.24v6.466h4.311v4.311H62.085a2.155,2.155,0,0,1-2.155-2.155V19.932a2.155,2.155,0,0,1,2.155-2.155H75.016V13.466H59.929V7H42.687v6.466h.045v6.466H49.2V15.621h4.311v6.466a2.155,2.155,0,0,1-2.155,2.155H40.577a2.155,2.155,0,0,1-2.155-2.155V13.466H31.911v6.466H25.445V30.708H18.979V47.95h.045V45.8H34.066V39.329h4.311V47.95a2.155,2.155,0,0,1-2.155,2.155H25.445v6.466H38.377v6.466h4.311V47.95H47v8.621h2.155v19.4h4.311v-19.4h4.356l-.041-6.466H53.468V45.8h6.466a2.155,2.155,0,0,1,2.155,2.155l.041,8.621h-2.2v6.466h2.155V73.814H66.4V63.037h6.466V56.572H66.4a2.155,2.155,0,0,1-2.155-2.155V41.485A2.155,2.155,0,0,1,66.4,39.329h8.621V43.64H68.551v8.621h4.356v2.155h6.449l-.028,12.039L73.491,72.29l3.05,3.048,6.466-6.466a2.155,2.155,0,0,0,.632-1.524l.045-19.4h4.265V30.708ZM55.037,38.683a2.155,2.155,0,0,1-1.528.647H47V43.64H42.689V32.863H31.913V28.553H44.845A2.155,2.155,0,0,1,47,30.708v4.311h4.341l-.03-4.3,4.311-.03.045,6.466a2.155,2.155,0,0,1-.629,1.535Z" transform="translate(-18.979 -7)"/><path class="c" d="M27.979,35H32.29v4.311H27.979Z" transform="translate(-8.581 25.348)"/><path class="c" d="M32.979,41H37.29v4.311H32.979Z" transform="translate(-2.805 32.28)"/><path class="c" d="M38.979,40H43.29v4.311H38.979Z" transform="translate(4.127 31.124)"/></g><path class="d" d="M12.434,81.746h7.455v23.109a7.072,7.072,0,0,0,7.065,7.065H47.908v17.242a2.155,2.155,0,0,0,2.155,2.155H86.7a2.155,2.155,0,0,0,2.155-2.155V99.744l15.253-19.066A48.427,48.427,0,0,0,66.295,2H57.926A38.028,38.028,0,0,0,19.889,40.034V51.026L7.649,73.745a5.423,5.423,0,0,0,4.785,8Zm-.983-5.955,12.5-23.2a2.155,2.155,0,0,0,.259-1.022V40.037A33.717,33.717,0,0,1,57.926,6.311h8.369a44.117,44.117,0,0,1,34.448,71.676L85.009,97.641a2.168,2.168,0,0,0-.47,1.347v28.019H52.21V109.764a2.155,2.155,0,0,0-2.155-2.155h-23.1a2.757,2.757,0,0,1-2.754-2.754V79.59a2.155,2.155,0,0,0-2.155-2.155h-9.61a1.114,1.114,0,0,1-.983-1.644Z" transform="translate(0 0)"/><path class="d" d="M20.134,51.261h4.311v6.466A2.155,2.155,0,0,0,26.6,59.882H39.532v4.311h4.311V59.882h6.466V77.125h4.311V59.882h4.311v4.311a2.155,2.155,0,0,0,2.155,2.155H63.24v8.621h4.311V66.348h6.466a2.155,2.155,0,0,0,2.155-2.155V57.727h4.311v9.884l-5.837,5.834,3.05,3.048,6.466-6.466a2.155,2.155,0,0,0,.631-1.524V51.261H89.1a2.155,2.155,0,0,0,2.155-2.155V31.863A2.155,2.155,0,0,0,89.1,29.708H84.793V21.087a2.155,2.155,0,0,0-2.155-2.155H78.327V14.621a2.155,2.155,0,0,0-2.155-2.155H63.24V8.155A2.155,2.155,0,0,0,61.085,6H43.842a2.155,2.155,0,0,0-2.155,2.155v4.311H33.066a2.155,2.155,0,0,0-2.155,2.155v4.311H26.6a2.155,2.155,0,0,0-2.155,2.155v8.621H20.134a2.155,2.155,0,0,0-2.155,2.155V49.106A2.155,2.155,0,0,0,20.134,51.261ZM22.29,34.019H26.6a2.155,2.155,0,0,0,2.155-2.155V23.242h4.311a2.155,2.155,0,0,0,2.155-2.155V16.776h4.356v6.466A2.155,2.155,0,0,0,41.732,25.4H52.509a2.155,2.155,0,0,0,2.155-2.155V16.776H50.354v4.311H43.888V16.776A2.155,2.155,0,0,0,46,14.621V10.311H58.929v4.311a2.155,2.155,0,0,0,2.155,2.155H74.016v2.155H63.24a2.155,2.155,0,0,0-2.155,2.155V31.863a2.155,2.155,0,0,0,2.155,2.155h6.466V29.708H65.4V23.242H80.482v6.466H74.016v4.311H86.948V46.95H82.638a2.155,2.155,0,0,0-2.155,2.155v4.311H69.706V44.8h6.466V40.485H67.551A2.155,2.155,0,0,0,65.4,42.64V55.572a2.155,2.155,0,0,0,2.155,2.155h4.311v4.311H63.24V49.106a2.155,2.155,0,0,0-2.155-2.155H54.619v4.311h4.311v4.311H48.153V49.106H43.842v6.466H28.755V51.261h8.621a2.155,2.155,0,0,0,2.155-2.155V40.485H35.221V46.95H22.29Z" transform="translate(12.687 4.621)"/><path class="d" d="M35.755,32.087h4.311V27.776h6.511a2.155,2.155,0,0,0,2.155-2.17l-.045-6.466-4.311.03.03,4.3H40.066V19.155A2.155,2.155,0,0,0,37.911,17H24.979v4.311H35.755Z" transform="translate(20.774 17.329)"/><path class="d" d="M27.979,35H32.29v4.311H27.979Z" transform="translate(24.24 38.125)"/><path class="d" d="M32.979,41H37.29v4.311H32.979Z" transform="translate(30.016 45.056)"/><path class="d" d="M38.979,40H43.29v4.311H38.979Z" transform="translate(36.948 43.901)"/></g></svg>