<svg xmlns="http://www.w3.org/2000/svg" width="98.803" height="130.011" viewBox="0 0 98.803 130.011"><defs><style>.a{fill:#35b4ff;}.b{fill:#005386;stroke:#005386;stroke-width:0.5px;}</style></defs><g transform="translate(-61.563 0.336)"><path class="a" d="M190.938,143.685l-11.78,6.594a1.646,1.646,0,0,1-2.418-1.757l2.631-13.242-9.912-9.166a1.646,1.646,0,0,1,.924-2.843l13.407-1.59,5.655-12.259a1.646,1.646,0,0,1,2.989,0l5.655,12.259,13.407,1.59a1.646,1.646,0,0,1,.924,2.843l-9.912,9.166,2.631,13.242a1.646,1.646,0,0,1-2.418,1.757Z" transform="translate(-79.974 -81.048)"/><path class="b" d="M161.5,55.7a2.04,2.04,0,1,0,1.84-3.641,36.857,36.857,0,0,0-45.727,55.5,2.04,2.04,0,0,0,3.219-2.505A32.778,32.778,0,0,1,161.5,55.7Z" transform="translate(-35.852 -35.928)"/><path class="b" d="M216.658,124.026a2.04,2.04,0,0,0-.9,2.74A32.778,32.778,0,0,1,166.4,167.428a2.04,2.04,0,1,0-2.505,3.219,36.857,36.857,0,0,0,55.5-45.72A2.04,2.04,0,0,0,216.658,124.026Z" transform="translate(-75.626 -92.51)"/><path class="b" d="M339.336,86.173c.509.45,1.012.923,1.5,1.406s.956.986,1.406,1.495a2.04,2.04,0,0,0,3.057-2.7c-.505-.572-1.036-1.137-1.578-1.678s-1.106-1.073-1.678-1.578a2.04,2.04,0,0,0-2.7,3.056Z" transform="translate(-206.791 -61.724)"/><path class="b" d="M159.01,45.449l-2.683-4.4a2.871,2.871,0,0,1-.384-1.939l.8-5.082a6.918,6.918,0,0,0-2.776-6.7l-4.159-3.025a2.871,2.871,0,0,1-1.1-1.645l-1.211-5a6.92,6.92,0,0,0-5.118-5.119l-5.005-1.211a2.869,2.869,0,0,1-1.645-1.1L132.7,6.065A6.917,6.917,0,0,0,126,3.289l-5.084.8a2.871,2.871,0,0,1-1.939-.384l-4.4-2.684a6.921,6.921,0,0,0-7.234,0l-4.4,2.683a2.87,2.87,0,0,1-1.939.384l-5.082-.8a6.919,6.919,0,0,0-6.7,2.776L86.2,10.223a2.872,2.872,0,0,1-1.645,1.1l-5,1.211a6.92,6.92,0,0,0-5.119,5.118l-1.211,5.005a2.869,2.869,0,0,1-1.1,1.645l-4.16,3.025a6.918,6.918,0,0,0-2.776,6.7l.8,5.084a2.871,2.871,0,0,1-.384,1.939l-2.684,4.4a6.922,6.922,0,0,0,0,7.233l2.683,4.4a2.87,2.87,0,0,1,.384,1.939l-.8,5.082a6.918,6.918,0,0,0,2.776,6.7l4.159,3.025a2.87,2.87,0,0,1,1.1,1.645l1.211,5A6.919,6.919,0,0,0,79.551,85.6l2.09.506L67.5,117.653a2.04,2.04,0,0,0,2.1,2.86l11.381-1.361,6.556,9.4a2.04,2.04,0,0,0,1.672.873c.063,0,.128,0,.191-.009a2.04,2.04,0,0,0,1.67-1.2L105.517,96l1.83,1.116a6.921,6.921,0,0,0,7.234,0l1.9-1.156,14.464,32.265a2.039,2.039,0,0,0,1.67,1.2c.064.006.128.009.191.009a2.04,2.04,0,0,0,1.672-.873l6.556-9.4,11.381,1.361a2.04,2.04,0,0,0,2.1-2.86L140.364,86.084l2.011-.487a6.92,6.92,0,0,0,5.119-5.118l1.211-5.005a2.869,2.869,0,0,1,1.1-1.645l4.16-3.025a6.918,6.918,0,0,0,2.776-6.7l-.8-5.084a2.871,2.871,0,0,1,.384-1.939l2.684-4.4h0A6.92,6.92,0,0,0,159.01,45.449ZM88.822,123.265l-5.2-7.451a2.039,2.039,0,0,0-1.915-.858l-9.019,1.078L85.579,87.287a2.852,2.852,0,0,1,.621.621l3.025,4.16a7.011,7.011,0,0,0,.963,1.072L83.405,108.27a2.039,2.039,0,1,0,3.722,1.669l6.759-15.077a6.98,6.98,0,0,0,2.037-.018l5.084-.8a2.863,2.863,0,0,1,.912.006Zm51.478-8.309a2.038,2.038,0,0,0-1.915.858l-5.2,7.451-13.1-29.227a2.872,2.872,0,0,1,.832.006l5.082.8a6.985,6.985,0,0,0,2.118.006l6.764,15.089a2.039,2.039,0,1,0,3.722-1.669L131.8,93.082a7.035,7.035,0,0,0,.9-1.014l3.025-4.159a2.863,2.863,0,0,1,.687-.669l12.908,28.794Zm15.227-64.4-2.684,4.4a6.955,6.955,0,0,0-.931,4.7l.8,5.084a2.856,2.856,0,0,1-1.146,2.765l-4.16,3.026a6.955,6.955,0,0,0-2.666,3.984l-1.211,5.005a2.857,2.857,0,0,1-2.113,2.113l-5.005,1.211a6.955,6.955,0,0,0-3.984,2.666L129.4,89.668a2.855,2.855,0,0,1-2.765,1.146l-5.082-.8a6.956,6.956,0,0,0-4.7.931l-4.4,2.683a2.858,2.858,0,0,1-2.986,0l-4.4-2.684a6.953,6.953,0,0,0-4.7-.931l-5.084.8a2.856,2.856,0,0,1-2.765-1.146L89.5,85.508a6.955,6.955,0,0,0-3.984-2.666L80.51,81.631A2.857,2.857,0,0,1,78.4,79.518l-1.211-5a6.954,6.954,0,0,0-2.666-3.985L70.362,67.5a2.856,2.856,0,0,1-1.146-2.765l.8-5.082a6.955,6.955,0,0,0-.931-4.7l-2.683-4.4a2.856,2.856,0,0,1,0-2.986l2.684-4.4a6.955,6.955,0,0,0,.931-4.7l-.8-5.084a2.856,2.856,0,0,1,1.146-2.765l4.16-3.026a6.955,6.955,0,0,0,2.666-3.984L78.4,18.612A2.857,2.857,0,0,1,80.512,16.5l5.005-1.211A6.955,6.955,0,0,0,89.5,12.622l3.025-4.159a2.855,2.855,0,0,1,2.765-1.146l5.082.8a6.953,6.953,0,0,0,4.7-.931l4.4-2.683a2.858,2.858,0,0,1,2.986,0l4.4,2.684a6.952,6.952,0,0,0,4.7.932l5.084-.8A2.858,2.858,0,0,1,129.4,8.464l3.026,4.16a6.955,6.955,0,0,0,3.984,2.666l5.005,1.211a2.857,2.857,0,0,1,2.113,2.113l1.211,5a6.954,6.954,0,0,0,2.666,3.985l4.159,3.025a2.856,2.856,0,0,1,1.146,2.765l-.8,5.082a6.955,6.955,0,0,0,.931,4.7l2.683,4.4A2.858,2.858,0,0,1,155.527,50.559Z" transform="translate(0 0)"/><path class="b" d="M162.037,121.582l9.074,8.391L168.7,142.1a3.7,3.7,0,0,0,3.61,4.41,3.688,3.688,0,0,0,1.8-.476l10.784-6.036,10.784,6.036A3.685,3.685,0,0,0,201.1,142.1l-2.409-12.122,9.074-8.391a3.686,3.686,0,0,0-2.068-6.366l-12.273-1.455-5.177-11.222a3.686,3.686,0,0,0-6.694,0l-5.177,11.223-12.273,1.455a3.686,3.686,0,0,0-2.068,6.366Zm15.956-3.9a2.04,2.04,0,0,0,1.612-1.171l5.3-11.484,5.3,11.484a2.04,2.04,0,0,0,1.612,1.171l12.559,1.489-9.286,8.587a2.04,2.04,0,0,0-.616,1.895l2.465,12.4L185.9,135.876a2.04,2.04,0,0,0-1.992,0l-11.036,6.177,2.465-12.4a2.038,2.038,0,0,0-.616-1.895l-9.285-8.587Z" transform="translate(-73.938 -75.018)"/></g></svg>