<svg xmlns="http://www.w3.org/2000/svg" width="127.962" height="97.003" viewBox="0 0 127.962 97.003"><defs><style>.a{fill:#35b4ff;}.b{fill:#fff;}.c{fill:#005386;}</style></defs><g transform="translate(-8 -72)"><g transform="translate(10.064 74.064)"><path class="a" d="M139.834,320v4.128a8.256,8.256,0,0,1-8.256,8.256H24.256A8.256,8.256,0,0,1,16,324.128V320Z" transform="translate(-16 -258.083)"/><path class="b" d="M139.834,88.256v53.661H16V88.256A8.256,8.256,0,0,1,24.256,80H131.579A8.256,8.256,0,0,1,139.834,88.256Z" transform="translate(-16 -80)"/><path class="a" d="M228.153,380.383H199L203.386,368h20.381Z" transform="translate(-151.788 -293.7)"/><path class="a" d="M160,416h49.534v6.192H160Z" transform="translate(-122.85 -329.316)"/><rect class="b" width="37" height="55" rx="6" transform="translate(80.917 37.438)"/><path class="a" d="M382.447,230.192H370.064L368,224h16.511Z" transform="translate(-277.188 -186.85)"/></g><g transform="translate(8 72)"><path class="c" d="M125.642,72H18.32A10.33,10.33,0,0,0,8,82.32v57.789a10.33,10.33,0,0,0,10.32,10.32H58.741l-2.923,8.256h-8.6a2.064,2.064,0,0,0-2.064,2.064v6.192A2.064,2.064,0,0,0,47.214,169h76.364a6.2,6.2,0,0,0,6.192-6.192V149.569a10.319,10.319,0,0,0,6.192-9.46V82.32A10.33,10.33,0,0,0,125.642,72ZM18.32,146.3a6.2,6.2,0,0,1-6.192-6.192v-2.064H88.492V146.3Zm70.173,4.128v8.256h-.606l-2.923-8.256Zm-4.984,8.256H60.2l2.923-8.256H80.585Zm-34.23,6.192v-2.064H88.492a6.15,6.15,0,0,0,.356,2.064Zm76.364-2.064a2.067,2.067,0,0,1-2.064,2.064H94.684a2.067,2.067,0,0,1-2.064-2.064v-47.47a2.067,2.067,0,0,1,2.064-2.064h4.7l1.594,4.781a2.064,2.064,0,0,0,1.958,1.411h12.383a2.064,2.064,0,0,0,1.958-1.411l1.594-4.78h4.7a2.067,2.067,0,0,1,2.064,2.064Zm-21.9-49.534h10.784l-.689,2.064h-9.406Zm28.095,26.831a6.194,6.194,0,0,1-2.063,4.615V115.342a6.2,6.2,0,0,0-6.192-6.192H94.684a6.2,6.2,0,0,0-6.192,6.192v18.575H12.128V82.32a6.2,6.2,0,0,1,6.192-6.192H125.642a6.2,6.2,0,0,1,6.192,6.192Z" transform="translate(-8 -72)"/><path class="c" d="M56.511,336H42.064a2.064,2.064,0,0,0,0,4.128H56.511a2.064,2.064,0,0,0,0-4.128Z" transform="translate(-31.744 -267.891)"/><path class="c" d="M124.128,336h-2.064a2.064,2.064,0,0,0,0,4.128h2.064a2.064,2.064,0,0,0,0-4.128Z" transform="translate(-91.105 -267.891)"/></g></g></svg>