<?xml version="1.0" standalone="no"?><!DOCTYPE svg PUBLIC "-//W3C//DTD SVG 1.1//EN" "http://www.w3.org/Graphics/SVG/1.1/DTD/svg11.dtd"><svg t="1572083766269" class="icon" viewBox="0 0 1024 1024" version="1.1" xmlns="http://www.w3.org/2000/svg" p-id="3322" xmlns:xlink="http://www.w3.org/1999/xlink" width="200" height="200"><defs><style type="text/css"></style></defs><path d="M766.5 472.3l-206-206c-26.2-26.2-68.8-26.2-95 0l-206 206c-10.9 10.9-10.9 28.7 0 39.6 10.9 10.9 28.7 10.9 39.6 0L485 326v606.2c0 15.5 12.5 28 28 28s28-12.5 28-28V326l185.9 185.9c10.9 10.9 28.7 10.9 39.6 0 11-10.9 11-28.6 0-39.6zM818.7 120.7H207.3c-15.5 0-28-12.5-28-28s12.5-28 28-28h611.5c15.5 0 28 12.5 28 28-0.1 15.4-12.6 28-28.1 28z" fill="#515151" p-id="3323"></path></svg>