<svg xmlns="http://www.w3.org/2000/svg" width="19.303" height="19.303" viewBox="0 0 19.303 19.303"><defs><style>.a{fill:none;}.b{fill:#fff;stroke:#03598d;stroke-width:0.5px;}</style></defs><path class="a" d="M0,0H19.3V19.3H0Z"/><path class="b" d="M9.847,5.609a7.858,7.858,0,0,1,7.094,4.424,7.9,7.9,0,0,1-14.188,0A7.858,7.858,0,0,1,9.847,5.609M9.847,4A9.512,9.512,0,0,0,1,10.032a9.5,9.5,0,0,0,17.695,0A9.512,9.512,0,0,0,9.847,4Zm0,4.022a2.011,2.011,0,1,1-2.011,2.011A2.012,2.012,0,0,1,9.847,8.022m0-1.609a3.619,3.619,0,1,0,3.619,3.619A3.625,3.625,0,0,0,9.847,6.413Z" transform="translate(-0.196 -0.783)"/></svg>