<svg xmlns="http://www.w3.org/2000/svg" xmlns:xlink="http://www.w3.org/1999/xlink" width="1920" height="3771" viewBox="0 0 1920 3771"><defs><style>.a{fill:#fff;stroke:#707070;}.b{clip-path:url(#a);}.c{fill:#fbfeff;}.d{fill:url(#b);}.e{mix-blend-mode:multiply;fill:url(#c);}.e,.f,.v,.w{isolation:isolate;}.f,.s,.t{opacity:0.4;}.g{fill:#7ab1d4;}.h,.q,.s{fill:#79b6dc;}.i{fill:#247dc1;}.j,.p{fill:#439bd0;}.k{fill:#163c91;}.l{fill:#53a8cf;}.m,.r{fill:#a5c6dd;}.n{fill:#d9dee4;}.o{fill:#c3d4e1;}.p,.r,.w,.x{opacity:0.6;}.q,.u,.v{opacity:0.8;}.y{filter:url(#j);}.z{filter:url(#h);}.aa{filter:url(#f);}.ab{filter:url(#d);}</style><clipPath id="a"><rect class="a" width="1920" height="3771"/></clipPath><radialGradient id="b" cx="0.5" cy="0.415" r="0.738" gradientTransform="matrix(-1, -0.001, 0.002, -2.946, 0.999, 2.563)" gradientUnits="objectBoundingBox"><stop offset="0" stop-color="#239de8"/><stop offset="1" stop-color="#005386"/></radialGradient><radialGradient id="c" cx="0.725" cy="0.684" r="0.725" gradientTransform="matrix(-1, -0.004, 0.007, -1.801, 1.445, 1.918)" xlink:href="#b"/><filter id="d" x="-64.774" y="-17.702" width="470.213" height="497.71" filterUnits="userSpaceOnUse"><feOffset dx="110" dy="143" input="SourceAlpha"/><feGaussianBlur stdDeviation="18" result="e"/><feFlood flood-opacity="0.102"/><feComposite operator="in" in2="e"/><feComposite in="SourceGraphic"/></filter><filter id="f" x="1653.299" y="2818.967" width="515.347" height="511.423" filterUnits="userSpaceOnUse"><feOffset dx="110" dy="143" input="SourceAlpha"/><feGaussianBlur stdDeviation="49.5" result="g"/><feFlood flood-opacity="0.102"/><feComposite operator="in" in2="g"/><feComposite in="SourceGraphic"/></filter><filter id="h" x="17.66" y="1201.6" width="375.345" height="404.547" filterUnits="userSpaceOnUse"><feOffset dx="110" dy="143" input="SourceAlpha"/><feGaussianBlur stdDeviation="18" result="i"/><feFlood flood-opacity="0.102"/><feComposite operator="in" in2="i"/><feComposite in="SourceGraphic"/></filter><filter id="j" x="1887" y="2392.819" width="310.005" height="340.381" filterUnits="userSpaceOnUse"><feOffset dx="110" dy="143" input="SourceAlpha"/><feGaussianBlur stdDeviation="18" result="k"/><feFlood flood-opacity="0.102"/><feComposite operator="in" in2="k"/><feComposite in="SourceGraphic"/></filter></defs><g class="b"><g transform="translate(-64.775 -58.609)"><path class="c" d="M0,0H1920l-1.031,3685.761H-1Z" transform="translate(64.775 56.659)"/><path class="d" d="M0-41.041,1920,86.436V709.773H0Z" transform="translate(64.775 3218.834)"/><path class="e" d="M0,0H1920V596.87L0,886.242Z" transform="translate(64.775 56.659)"/><g class="f" transform="translate(0 40.906)"><g class="ab" transform="matrix(1, 0, 0, 1, 64.77, 17.7)"><path class="g" d="M138.21,300.5,50.539,265.906l4.7-.147-5.046.147L0,186.74,3.226,124.4l8.415,6.466L3.228,124.4l1.016-.9-1.016.894L5.263,91.441l66.4-70.684L112.051,0,71.195,64.493l.062-.054,0,.083.234-.054L111.99.108l.045.025L167.3,1.227,252,31.467,271.36,57.057l.1.02.011-.027.024.034.009,0,0,.007,34.714,49.284-2.648,96.533-13.9,6.6,13.781-6.484-64.6,72.693-.165.373L138.472,300.71ZM93.789,264.484l75.36-52.641h0l-75.36,52.64ZM68.148,174.289l-1.667-.62,0,.014Zm174.433-46.355h0l-.175-.259Z" transform="translate(-64.77 -17.7)"/></g><g transform="translate(0 0.151)"><path class="g" d="M93.706-.084,182.811,60.2l-35.746,105.2L36.112,168.5-.059,65.6Z" transform="matrix(0.927, 0.375, -0.375, 0.927, 95.717, 3.761)"/><path class="h" d="M8126.76-7389.859l-28.836,70.969-60.37-89.306Z" transform="translate(-7855.258 7446.948)"/><path class="i" d="M8018.27-7183.891l92.508,11.04-19.654-94.43Z" transform="translate(-7848.517 7395.377)"/><path class="j" d="M8149.864-7213.856c1.059-.516,41.307-19.616,41.307-19.616l2.646-96.535-34.746-49.328-28.986,71.133Z" transform="translate(-7887.605 7436.385)"/><path class="k" d="M7901.282-7082.743l76.175-53.21,92.53,11.083-23.688,53.642-100.208,24.619Z" transform="translate(-7807.621 7347.315)"/><path class="l" d="M8124.109-7076.134l64.854-72.972-41.275,19.423Z" transform="translate(-7885.515 7352.133)"/><path class="i" d="M7859.32-7195.451l27.292,90.936,76.176-53.213Z" transform="translate(-7792.952 7369.091)"/><path class="h" d="M7830.273-7367.683l-68.028,59.963,63.545,48.842Z" transform="translate(-7759.017 7432.122)"/><path class="m" d="M7907.57-7469.14l-40.736,64.728,111.211-25.813Z" transform="translate(-7795.579 7469.247)"/><path class="n" d="M7830.024-7404.521l41.045-64.792-40.392,20.759-66.4,70.684-2.035,32.958Z" transform="translate(-7759.017 7469.313)"/><path class="j" d="M7760.51-7273.11l-3.229,62.34,50.19,79.165,43.644-1.278-27.608-91.818Z" transform="translate(-7757.281 7397.512)"/><path class="l" d="M7834.984-7050.715l87.833,34.656-44.613-36.016Z" transform="translate(-7784.444 7316.622)"/><path class="o" d="M8088.876-7412.117l-19.406-25.652-84.7-30.238-55.315-1.1,70.463,38.959Z" transform="translate(-7817.47 7469.235)"/></g></g><g transform="translate(332.585 797.173)"><path class="i" d="M9367.867-6291.067,9476-6366.155l-36.934,75.332Z" transform="translate(-9367.846 6366.183)"/><path class="j" d="M9574.969-6291.911l99.345,23.358-62.354-98.684Z" transform="translate(-9503.823 6367.237)"/><path class="k" d="M9444.3-6046.481l-4.579-94.818-71.142-.236Z" transform="translate(-9368.523 6216.654)"/><path class="i" d="M9674.39-6117.859l-99.353-23.362,4.59,94.835Z" transform="translate(-9503.868 6216.548)"/><path class="p" d="M9491.73-6110.407l-48.169,63.564-75.759-95.091Z" transform="translate(-9367.803 6217.025)"/><path class="q" d="M9680.143-6072.366l-46.574,7.919L9585.4-6000.9Z" transform="translate(-9509.644 6171.082)"/><path class="r" d="M9473.038-6365.021l15.747,106.541-123.926-31.53Z" transform="translate(-9364.84 6365.095)"/><path class="s" d="M9679.861-6365.021l62.316,98.626-46.641,7.927Z" transform="translate(-9571.663 6365.095)"/></g><g class="t" transform="translate(1779.113 234.929)"><path class="i" d="M9367.867-6298.965l96.758-67.189-33.047,67.407Z" transform="translate(-9367.847 6366.18)"/><path class="j" d="M9574.969-6299.833l88.895,20.9-55.795-88.3Z" transform="translate(-9511.307 6367.236)"/><path class="k" d="M9436.336-6056.479l-4.1-84.844-63.658-.212Z" transform="translate(-9368.529 6208.753)"/><path class="i" d="M9663.939-6120.317l-88.9-20.9,4.107,84.86Z" transform="translate(-9511.354 6208.625)"/><path class="p" d="M9478.7-6113.724l-43.1,56.878-67.791-85.088Z" transform="translate(-9367.803 6209.124)"/><path class="q" d="M9670.178-6072.366l-41.677,7.086-43.1,56.863Z" transform="translate(-9517.612 6160.699)"/><path class="r" d="M9461.659-6365.021l14.09,95.334-110.89-28.212Z" transform="translate(-9364.842 6365.087)"/><path class="s" d="M9679.861-6365.021l55.762,88.253-41.734,7.093Z" transform="translate(-9583.044 6365.087)"/></g><g class="t" transform="translate(898.062)"><path class="i" d="M9367.867-6281.8l121.477-84.354-41.49,84.627Z" transform="translate(-9367.842 6366.186)"/><path class="j" d="M9574.969-6282.615l111.6,26.24-70.049-110.862Z" transform="translate(-9495.043 6367.237)"/><path class="k" d="M9453.645-6034.75l-5.144-106.519-79.921-.266Z" transform="translate(-9368.516 6225.925)"/><path class="i" d="M9686.65-6114.976l-111.613-26.246,5.156,106.539Z" transform="translate(-9495.085 6225.846)"/><path class="p" d="M9507.024-6106.517l-54.112,71.409L9367.8-6141.934Z" transform="translate(-9367.803 6226.292)"/><path class="q" d="M9691.835-6072.366l-52.323,8.9-54.109,71.39Z" transform="translate(-9500.294 6183.262)"/><path class="r" d="M9486.388-6365.021l17.69,119.689-139.219-35.42Z" transform="translate(-9364.837 6365.104)"/><path class="s" d="M9679.861-6365.021l70.007,110.8-52.4,8.9Z" transform="translate(-9558.311 6365.104)"/></g><g class="u" transform="translate(821.062 118.927)"><path class="i" d="M9367.867-6338.829l39.351-27.326-13.44,27.414Z" transform="translate(-9367.859 6366.165)"/><path class="j" d="M9574.969-6339.826l36.152,8.5-22.691-35.911Z" transform="translate(-9549.078 6367.237)"/><path class="k" d="M9396.136-6106.944l-1.667-34.5-25.889-.086Z" transform="translate(-9368.56 6168.872)"/><path class="i" d="M9611.192-6132.72l-36.155-8.5,1.67,34.511Z" transform="translate(-9549.138 6168.635)"/><path class="p" d="M9412.9-6130.461l-17.528,23.132-27.57-34.6Z" transform="translate(-9367.803 6169.258)"/><path class="q" d="M9619.879-6072.366l-16.949,2.882-17.527,23.125Z" transform="translate(-9557.833 6108.29)"/><path class="r" d="M9404.227-6365.021l5.73,38.771-45.1-11.472Z" transform="translate(-9364.853 6365.047)"/><path class="s" d="M9679.861-6365.021l22.678,35.891-16.973,2.884Z" transform="translate(-9640.486 6365.047)"/></g><g class="v" transform="translate(1756.574 2883.076)"><g class="aa" transform="matrix(1, 0, 0, 1, -1691.8, -2824.47)"><path class="g" d="M98.551,214.272,36.037,189.605l3.349-.105-3.6.105L0,133.156,2.3,88.705l6,4.611-6-4.611.725-.639L2.3,88.7,3.752,65.2,51.1,14.8,79.9,0,50.766,45.987l.044-.039,0,.059.167-.039L79.855.077l.032.018L119.3.875l60.393,21.563,13.806,18.248.07.014.008-.019.017.024h.006l0,0,24.753,35.142-1.888,68.834-9.911,4.7,9.827-4.623L170.308,196.6l-.118.266L98.738,214.423ZM66.877,188.592l53.736-37.536h0L66.876,188.591ZM48.593,124.278l-1.189-.442,0,.01Zm124.38-33.054h0l-.125-.185Z" transform="translate(1691.8 2824.47)"/></g><g transform="translate(0 0.108)"><path class="g" d="M66.817-.06l63.537,42.985-25.489,75.01L25.75,120.151-.042,46.777Z" transform="matrix(0.927, 0.375, -0.375, 0.927, 68.251, 2.682)"/><path class="h" d="M8101.162-7395.12l-20.562,50.6-43.046-63.68Z" transform="translate(-7907.567 7435.829)"/><path class="i" d="M8018.269-7207.818l65.964,7.872-14.015-67.333Z" transform="translate(-7897.225 7358.622)"/><path class="j" d="M8144.187-7261.338c.756-.369,29.454-13.988,29.454-13.988l1.886-68.834-24.774-35.174-20.67,50.723Z" transform="translate(-7957.181 7420.017)"/><path class="k" d="M7901.28-7098.011l54.316-37.941,65.98,7.9-16.892,38.25-71.453,17.556Z" transform="translate(-7834.495 7286.665)"/><path class="l" d="M8124.109-7097.071l46.245-52.033-29.432,13.849Z" transform="translate(-7953.978 7293.873)"/><path class="i" d="M7859.319-7195.45l19.461,64.842,54.318-37.943Z" transform="translate(-7811.995 7319.266)"/><path class="h" d="M7810.751-7367.681l-48.507,42.757,45.312,34.827Z" transform="translate(-7759.943 7413.63)"/><path class="m" d="M7895.881-7469.138l-29.048,46.155,79.3-18.407Z" transform="translate(-7816.024 7469.218)"/><path class="n" d="M7810.575-7423.112l29.266-46.2-28.8,14.8-47.345,50.4-1.451,23.5Z" transform="translate(-7759.943 7469.312)"/><path class="j" d="M7759.583-7273.11l-2.3,44.452,35.788,56.451,31.12-.913-19.687-65.472Z" transform="translate(-7757.281 7361.816)"/><path class="l" d="M7834.983-7051.1l62.63,24.712-31.812-25.682Z" transform="translate(-7798.946 7240.712)"/><path class="o" d="M8043.131-7428.469l-13.839-18.291-60.394-21.563-39.442-.781,50.244,27.78Z" transform="translate(-7849.603 7469.198)"/></g></g><g class="t" transform="translate(1810.585 1782.708)"><path class="i" d="M9367.866-6274.92l131.385-91.234-44.875,91.53Z" transform="translate(-9367.84 6366.188)"/><path class="j" d="M9574.969-6275.712l120.707,28.38-75.764-119.9Z" transform="translate(-9488.525 6367.236)"/><path class="k" d="M9460.582-6026.041l-5.563-115.207-86.439-.287Z" transform="translate(-9368.51 6232.809)"/><path class="i" d="M9695.754-6112.834l-120.717-28.387,5.576,115.228Z" transform="translate(-9488.564 6232.75)"/><path class="p" d="M9518.379-6103.627l-58.527,77.232L9367.8-6141.933Z" transform="translate(-9367.803 6233.169)"/><path class="q" d="M9700.515-6072.366l-56.59,9.623L9585.4-5985.53Z" transform="translate(-9493.353 6192.306)"/><path class="r" d="M9496.3-6365.02l19.134,129.45-150.574-38.308Z" transform="translate(-9364.836 6365.11)"/><path class="s" d="M9679.861-6365.02l75.716,119.834-56.67,9.631Z" transform="translate(-9548.397 6365.11)"/></g><g class="u" transform="translate(1774.604 1950.23)"><path class="i" d="M9367.866-6342.75l33.706-23.4-11.513,23.481Z" transform="translate(-9367.859 6366.163)"/><path class="j" d="M9574.969-6343.757l30.966,7.28-19.437-30.76Z" transform="translate(-9552.793 6367.236)"/><path class="k" d="M9392.182-6111.906l-1.428-29.556-22.175-.073Z" transform="translate(-9368.562 6164.95)"/><path class="i" d="M9606.006-6133.938l-30.969-7.283,1.431,29.561Z" transform="translate(-9552.854 6164.702)"/><path class="p" d="M9406.432-6132.106l-15.015,19.813-23.614-29.64Z" transform="translate(-9367.803 6165.338)"/><path class="q" d="M9614.933-6072.366l-14.518,2.469-15.014,19.808Z" transform="translate(-9561.787 6103.135)"/><path class="r" d="M9398.579-6365.02l4.909,33.21-38.629-9.827Z" transform="translate(-9364.854 6365.043)"/><path class="s" d="M9679.861-6365.02l19.424,30.743-14.537,2.471Z" transform="translate(-9646.136 6365.043)"/></g><g class="f" transform="translate(82.434 1260.208)"><g class="z" transform="matrix(1, 0, 0, 1, -17.66, -1201.6)"><path class="g" d="M95.391,207.4l-60.51-23.876,3.242-.1-3.483.1L0,128.886,2.226,85.861l5.808,4.463L2.228,85.861l.7-.618-.7.617,1.4-22.748L49.46,14.326,77.337,0l-28.2,44.513.043-.037,0,.057.161-.037L77.294.074l.031.017L115.47.847l58.457,20.871L187.29,39.381l.068.014.008-.019.017.024h.006l0,0L211.345,73.42l-1.827,66.626-9.593,4.553,9.511-4.475L164.848,190.3l-.114.258L95.572,207.547ZM64.732,182.544l52.013-36.332h0L64.732,182.544Zm-17.7-62.252-1.15-.428,0,.009ZM167.427,88.3h0l-.121-.179Z" transform="translate(17.66 1201.6)"/></g><g transform="translate(0 0.104)"><path class="g" d="M64.675-.058l61.5,41.606-24.672,72.6L24.924,116.3-.041,45.277Z" transform="matrix(0.927, 0.375, -0.375, 0.927, 66.063, 2.596)"/><path class="h" d="M8099.123-7395.54l-19.9,48.982-41.667-61.639Z" transform="translate(-7911.734 7434.94)"/><path class="i" d="M8018.27-7209.726l63.848,7.62-13.565-65.175Z" transform="translate(-7901.108 7355.691)"/><path class="j" d="M8143.736-7265.123c.73-.355,28.509-13.539,28.509-13.539l1.827-66.627-23.981-34.046-20.006,49.1Z" transform="translate(-7962.728 7418.713)"/><path class="k" d="M7901.281-7099.229l52.575-36.725,63.864,7.648-16.35,37.023-69.163,16.992Z" transform="translate(-7836.637 7281.835)"/><path class="l" d="M8124.109-7098.74l44.762-50.365-28.488,13.4Z" transform="translate(-7959.434 7289.229)"/><path class="i" d="M7859.32-7195.451l18.836,62.763,52.576-36.727Z" transform="translate(-7813.514 7315.297)"/><path class="h" d="M7809.2-7367.682l-46.953,41.385,43.858,33.712Z" transform="translate(-7760.017 7412.159)"/><path class="m" d="M7894.949-7469.14l-28.115,44.675,76.757-17.817Z" transform="translate(-7817.654 7469.217)"/><path class="n" d="M7809.025-7424.593l28.329-44.719-27.878,14.329-45.827,48.784-1.4,22.749Z" transform="translate(-7760.017 7469.313)"/><path class="j" d="M7759.51-7273.11l-2.229,43.027,34.642,54.639,30.122-.882-19.055-63.372Z" transform="translate(-7757.28 7358.972)"/><path class="l" d="M7834.984-7051.135l60.622,23.917-30.792-24.857Z" transform="translate(-7800.102 7234.664)"/><path class="o" d="M8039.486-7429.772l-13.394-17.705-58.458-20.871-38.178-.756,48.633,26.889Z" transform="translate(-7852.165 7469.197)"/></g></g><g class="w" transform="translate(1951.775 2451.427)"><g class="y" transform="matrix(1, 0, 0, 1, -1887, -2392.82)"><path class="g" d="M65.9,143.28,24.1,126.786l2.24-.07-2.406.07L0,89.039,1.538,59.316,5.55,62.4,1.539,59.316l.485-.427-.485.426L2.509,43.6,34.168,9.9,53.427,0,33.946,30.751l.029-.026,0,.04.111-.026L53.4.051l.021.012L79.771.585,120.155,15l9.232,12.2.047.01.005-.013.011.016h0v0L146,50.721l-1.262,46.028-6.627,3.146,6.571-3.092-30.8,34.66-.079.178L66.024,143.381Zm-21.18-17.172,35.932-25.1h0l-35.932,25.1ZM32.493,83.1l-.795-.3,0,.006ZM115.664,61h0l-.083-.123Z" transform="translate(1887 2392.82)"/></g><g transform="translate(0 0.072)"><path class="g" d="M44.68-.04,87.166,28.7,70.122,78.861l-52.9,1.482L-.028,31.279Z" transform="matrix(0.927, 0.375, -0.375, 0.927, 45.639, 1.793)"/><path class="h" d="M8080.088-7399.452l-13.749,33.838-28.785-42.582Z" transform="translate(-7950.633 7426.672)"/><path class="i" d="M8018.271-7227.52l44.108,5.263-9.372-45.024Z" transform="translate(-7937.331 7328.359)"/><path class="j" d="M8139.516-7300.433c.5-.247,19.695-9.354,19.695-9.354l1.262-46.027-16.567-23.521-13.821,33.917Z" transform="translate(-8014.469 7406.537)"/><path class="k" d="M7901.281-7110.583l36.321-25.37,44.119,5.284-11.295,25.577-47.78,11.738Z" transform="translate(-7856.623 7236.735)"/><path class="l" d="M8124.109-7114.312l30.923-34.793-19.681,9.26Z" transform="translate(-8010.346 7245.911)"/><path class="i" d="M7859.32-7195.452l13.013,43.359,36.321-25.371Z" transform="translate(-7827.676 7278.246)"/><path class="h" d="M7794.681-7367.682l-32.437,28.59,30.3,23.289Z" transform="translate(-7760.706 7398.405)"/><path class="m" d="M7886.257-7469.14l-19.423,30.862,53.026-12.308Z" transform="translate(-7832.859 7469.193)"/><path class="n" d="M7794.563-7438.419l19.57-30.894-19.259,9.9-31.659,33.7-.971,15.714Z" transform="translate(-7760.706 7469.313)"/><path class="j" d="M7758.82-7273.11l-1.54,29.723,23.932,37.748,20.81-.61-13.164-43.779Z" transform="translate(-7757.28 7332.425)"/><path class="l" d="M7834.984-7051.427l41.879,16.524-21.271-17.173Z" transform="translate(-7810.887 7178.211)"/><path class="o" d="M8005.469-7441.932l-9.253-12.231-40.384-14.418-26.375-.522,33.6,18.576Z" transform="translate(-7876.061 7469.168)"/></g></g><g class="x" transform="translate(97.584 2629.818)"><path class="i" d="M9367.867-6299.518l95.963-66.637-32.777,66.853Z" transform="translate(-9367.848 6366.18)"/><path class="j" d="M9574.969-6300.388l88.163,20.728-55.336-87.577Z" transform="translate(-9511.831 6367.237)"/><path class="k" d="M9435.778-6057.179l-4.063-84.146-63.135-.21Z" transform="translate(-9368.529 6208.2)"/><path class="i" d="M9663.208-6120.489l-88.171-20.732,4.073,84.161Z" transform="translate(-9511.879 6208.071)"/><path class="p" d="M9477.783-6113.956l-42.748,56.41-67.232-84.388Z" transform="translate(-9367.803 6208.571)"/><path class="q" d="M9669.48-6072.366l-41.333,7.028-42.745,56.395Z" transform="translate(-9518.171 6159.968)"/><path class="r" d="M9460.863-6365.021l13.974,94.55-109.978-27.981Z" transform="translate(-9364.842 6365.086)"/><path class="s" d="M9679.861-6365.021l55.3,87.525-41.391,7.036Z" transform="translate(-9583.841 6365.086)"/></g><g class="x" transform="translate(109.584 3325.832)"><path class="i" d="M9367.867-6299.518l95.963-66.637-32.777,66.853Z" transform="translate(-9367.848 6366.18)"/><path class="j" d="M9574.969-6300.388l88.163,20.728-55.336-87.577Z" transform="translate(-9511.831 6367.237)"/><path class="k" d="M9435.778-6057.179l-4.063-84.146-63.135-.21Z" transform="translate(-9368.529 6208.2)"/><path class="i" d="M9663.208-6120.489l-88.171-20.732,4.073,84.161Z" transform="translate(-9511.879 6208.071)"/><path class="p" d="M9477.783-6113.956l-42.748,56.41-67.232-84.388Z" transform="translate(-9367.803 6208.571)"/><path class="q" d="M9669.48-6072.366l-41.333,7.028-42.745,56.395Z" transform="translate(-9518.171 6159.968)"/><path class="r" d="M9460.863-6365.021l13.974,94.55-109.978-27.981Z" transform="translate(-9364.842 6365.086)"/><path class="s" d="M9679.861-6365.021l55.3,87.525-41.391,7.036Z" transform="translate(-9583.841 6365.086)"/></g></g></g></svg>