<svg xmlns="http://www.w3.org/2000/svg" width="96.063" height="115.317" viewBox="0 0 96.063 115.317"><defs><style>.a{fill:#f8f8fe;}.b{fill:#35b4ff;}.c{fill:#f8cc5c;}.d{fill:#005386;}</style></defs><g transform="translate(-6.998 -2)"><path class="a" d="M20.106,28.721A32.022,32.022,0,0,0,19.485,35V45.283L8.352,65.969a2.916,2.916,0,0,0,2.568,4.3h8.57V92.8a4.378,4.378,0,0,0,4.378,4.378H44.475v17.3H77.148V87.566L91.178,70.04A41.271,41.271,0,0,0,58.949,3H51.486A32,32,0,0,0,20.105,28.726Z" transform="translate(0.926 0.922)"/><g transform="translate(30.025 11.61)"><path class="b" d="M74.756,28.141v1.922H67.028V26.22h7.688V20.454H59.34V26.22h3.844v3.844H57.418A1.922,1.922,0,0,1,55.5,28.141v-9.61a1.922,1.922,0,0,1,1.922-1.922H68.95V12.766H55.5V7H40.12v5.766h.04v5.766h5.766V14.688h3.844v5.766a1.922,1.922,0,0,1-1.922,1.922h-9.61a1.922,1.922,0,0,1-1.922-1.922V12.766H30.511v5.766H24.745v9.61H18.979V43.517h.04V41.6H32.433V35.829h3.844v7.688a1.922,1.922,0,0,1-1.922,1.922h-9.61V51.2H36.277v5.766H40.12V43.517h3.844V51.2h1.922V68.5H49.73V51.2h3.884l-.037-5.766H49.734V41.6H55.5a1.922,1.922,0,0,1,1.922,1.922l.037,7.688H55.5v5.766h1.922v9.61h3.844v-9.61h5.766V51.2H61.262a1.922,1.922,0,0,1-1.922-1.922V37.751a1.922,1.922,0,0,1,1.922-1.922H68.95v3.844H63.184v7.688h3.884v1.922h5.75l-.025,10.736-5.2,5.2,2.72,2.718,5.766-5.766a1.922,1.922,0,0,0,.563-1.359l.04-17.3h3.8V28.141ZM51.133,35.253a1.922,1.922,0,0,1-1.363.577h-5.8v3.844H40.122v-9.61h-9.61V26.22H42.044a1.922,1.922,0,0,1,1.922,1.922v3.844h3.871l-.027-3.83,3.844-.027.04,5.766a1.922,1.922,0,0,1-.561,1.368Z" transform="translate(-18.979 -7)"/><path class="c" d="M27.979,35h3.844v3.844H27.979Z" transform="translate(-10.681 18.815)"/><path class="c" d="M32.979,41h3.844v3.844H32.979Z" transform="translate(-6.072 24.346)"/><path class="c" d="M38.979,40h3.844v3.844H38.979Z" transform="translate(-0.54 23.424)"/></g><path class="d" d="M11.846,73.112h6.648V93.719a6.306,6.306,0,0,0,6.3,6.3H43.479V115.4a1.922,1.922,0,0,0,1.922,1.922H78.074A1.922,1.922,0,0,0,80,115.4V89.162l13.6-17A43.184,43.184,0,0,0,59.875,2H52.412A33.911,33.911,0,0,0,18.494,35.917v9.8L7.579,65.978a4.836,4.836,0,0,0,4.267,7.134Zm-.876-5.31L22.116,47.116a1.922,1.922,0,0,0,.231-.911V35.919A30.067,30.067,0,0,1,52.412,5.844h7.463A39.34,39.34,0,0,1,90.594,69.76L76.563,87.287a1.934,1.934,0,0,0-.419,1.2v24.985H47.315V98.1a1.922,1.922,0,0,0-1.922-1.922h-20.6a2.458,2.458,0,0,1-2.456-2.456V71.19a1.922,1.922,0,0,0-1.922-1.922h-8.57a.994.994,0,0,1-.876-1.466Z" transform="translate(0)"/><path class="d" d="M19.9,46.361h3.844v5.766a1.922,1.922,0,0,0,1.922,1.922H37.2v3.844h3.844V54.049h5.766V69.424h3.844V54.049H54.5v3.844a1.922,1.922,0,0,0,1.922,1.922H58.34V67.5h3.844V59.815H67.95a1.922,1.922,0,0,0,1.922-1.922V52.127h3.844v8.814l-5.2,5.2,2.72,2.718L77,63.1a1.922,1.922,0,0,0,.563-1.359V46.361H81.4a1.922,1.922,0,0,0,1.922-1.922V29.063A1.922,1.922,0,0,0,81.4,27.141H77.56V19.454a1.922,1.922,0,0,0-1.922-1.922H71.794V13.688a1.922,1.922,0,0,0-1.922-1.922H58.34V7.922A1.922,1.922,0,0,0,56.418,6H41.042A1.922,1.922,0,0,0,39.12,7.922v3.844H31.433a1.922,1.922,0,0,0-1.922,1.922v3.844H25.667a1.922,1.922,0,0,0-1.922,1.922v7.688H19.9a1.922,1.922,0,0,0-1.922,1.922V44.439A1.922,1.922,0,0,0,19.9,46.361Zm1.922-15.376h3.844a1.922,1.922,0,0,0,1.922-1.922V21.376h3.844a1.922,1.922,0,0,0,1.922-1.922V15.61h3.884v5.766A1.922,1.922,0,0,0,39.161,23.3h9.61a1.922,1.922,0,0,0,1.922-1.922V15.61H46.849v3.844H41.083V15.61a1.922,1.922,0,0,0,1.882-1.922V9.844H54.5v3.844a1.922,1.922,0,0,0,1.922,1.922H67.95v1.922H58.34a1.922,1.922,0,0,0-1.922,1.922v9.61a1.922,1.922,0,0,0,1.922,1.922h5.766V27.141H60.262V21.376H73.716v5.766H67.95v3.844H79.481V42.517H75.638a1.922,1.922,0,0,0-1.922,1.922v3.844h-9.61V40.6h5.766V36.751H62.184a1.922,1.922,0,0,0-1.922,1.922V50.2a1.922,1.922,0,0,0,1.922,1.922h3.844v3.844H58.34V44.439a1.922,1.922,0,0,0-1.922-1.922H50.652v3.844H54.5V50.2h-9.61V44.439H41.042V50.2H27.589V46.361h7.688A1.922,1.922,0,0,0,37.2,44.439V36.751H33.355v5.766H21.823Z" transform="translate(10.124 3.688)"/><path class="d" d="M34.589,30.454h3.844V26.61h5.806a1.922,1.922,0,0,0,1.922-1.935l-.04-5.766-3.844.027.027,3.83H38.433V18.922A1.922,1.922,0,0,0,36.511,17H24.979v3.844h9.61Z" transform="translate(16.578 13.829)"/><path class="d" d="M27.979,35h3.844v3.844H27.979Z" transform="translate(19.344 30.424)"/><path class="d" d="M32.979,41h3.844v3.844H32.979Z" transform="translate(23.954 35.956)"/><path class="d" d="M38.979,40h3.844v3.844H38.979Z" transform="translate(29.485 35.034)"/></g></svg>