<svg xmlns="http://www.w3.org/2000/svg" width="130.267" height="142.399" viewBox="0 0 130.267 142.399"><defs><style>.a{fill:#35b4ff;}.b{fill:#005386;}.c{fill:#fbfeff;}</style></defs><g transform="translate(-21.81)"><path class="a" d="M236.126,146.944,224.662,168.3h14.132l-24.45,28.488,5.384-21.534h-9.646l3.165-28.308Z" transform="translate(-135.909 -106.076)"/><path class="b" d="M205.44,154.261a2.423,2.423,0,0,0-2.676,2.138l-1.374,12.3a2.421,2.421,0,0,0,2.407,2.691h6.544L205.71,189.91a2.422,2.422,0,0,0,4.187,2.164l24.45-28.488a2.422,2.422,0,0,0-1.838-4H222.427l9.549-17.787a2.422,2.422,0,0,0-2.134-3.567H206.961a2.422,2.422,0,0,0-2.407,2.153l-.933,8.35a2.422,2.422,0,0,0,4.813.538l.693-6.2h16.665l-9.549,17.787a2.422,2.422,0,0,0,2.134,3.567h8.862l-14.346,16.715,2.9-11.6a2.421,2.421,0,0,0-2.35-3.009H206.5l1.074-9.605A2.422,2.422,0,0,0,205.44,154.261Z" transform="translate(-129.624 -99.788)"/><path class="c" d="M191.148,128.694a40.646,40.646,0,0,0-70.74-27.321,2.422,2.422,0,0,0,3.586,3.257,35.8,35.8,0,1,1,44.619,54.951,10.251,10.251,0,0,0-2.56-.323h-31.1a10.251,10.251,0,0,0-2.56.323,35.818,35.818,0,0,1-12.451-49.546,2.422,2.422,0,0,0-4.132-2.528,40.66,40.66,0,0,0,11.845,54.8,10.251,10.251,0,0,0,.684,15.066,10.264,10.264,0,0,0,6.614,18.118h2.9a12.884,12.884,0,0,0,25.309,0h2.9a10.264,10.264,0,0,0,6.614-18.118,10.251,10.251,0,0,0,.684-15.066A40.665,40.665,0,0,0,191.148,128.694ZM150.5,201.115a8.057,8.057,0,0,1-7.669-5.621h15.339A8.057,8.057,0,0,1,150.5,201.115Zm11.739-26.161a2.422,2.422,0,1,0,0,4.843h3.812a5.427,5.427,0,1,1,0,10.853h-31.1a5.427,5.427,0,1,1,0-10.853h19.567a2.422,2.422,0,0,0,0-4.843H134.951a5.427,5.427,0,1,1,0-10.853h31.1a5.427,5.427,0,1,1,0,10.853Z" transform="translate(-63.559 -63.56)"/><path class="b" d="M191.148,128.694a40.646,40.646,0,0,0-70.74-27.321,2.422,2.422,0,0,0,3.586,3.257,35.8,35.8,0,1,1,44.619,54.951,10.251,10.251,0,0,0-2.56-.323h-31.1a10.251,10.251,0,0,0-2.56.323,35.818,35.818,0,0,1-12.451-49.546,2.422,2.422,0,0,0-4.132-2.528,40.66,40.66,0,0,0,11.845,54.8,10.251,10.251,0,0,0,.684,15.066,10.264,10.264,0,0,0,6.614,18.118h2.9a12.884,12.884,0,0,0,25.309,0h2.9a10.264,10.264,0,0,0,6.614-18.118,10.251,10.251,0,0,0,.684-15.066A40.665,40.665,0,0,0,191.148,128.694ZM150.5,201.115a8.057,8.057,0,0,1-7.669-5.621h15.339A8.057,8.057,0,0,1,150.5,201.115Zm11.739-26.161a2.422,2.422,0,1,0,0,4.843h3.812a5.427,5.427,0,1,1,0,10.853h-31.1a5.427,5.427,0,1,1,0-10.853h19.567a2.422,2.422,0,0,0,0-4.843H134.951a5.427,5.427,0,1,1,0-10.853h31.1a5.427,5.427,0,1,1,0,10.853Z" transform="translate(-63.559 -63.56)"/><path class="b" d="M438.3,225.483H424.086a2.422,2.422,0,0,0,0,4.843H438.3a2.422,2.422,0,1,0,0-4.843Z" transform="translate(-288.646 -162.771)"/><path class="b" d="M40.869,227.906a2.422,2.422,0,0,0-2.422-2.422H24.232a2.422,2.422,0,1,0,0,4.843H38.447A2.422,2.422,0,0,0,40.869,227.906Z" transform="translate(0 -162.772)"/><path class="b" d="M373.013,80.937a2.413,2.413,0,0,0,1.712-.709l10.052-10.052a2.422,2.422,0,0,0-3.425-3.425L371.3,76.8a2.422,2.422,0,0,0,1.712,4.134Z" transform="translate(-251.778 -47.674)"/><path class="b" d="M98.613,349.492,88.561,359.544a2.422,2.422,0,1,0,3.425,3.425l10.052-10.052a2.422,2.422,0,0,0-3.425-3.425Z" transform="translate(-47.674 -251.778)"/><path class="b" d="M249.715,19.059a2.422,2.422,0,0,0,2.422-2.422V2.422a2.422,2.422,0,0,0-4.843,0V16.637A2.422,2.422,0,0,0,249.715,19.059Z" transform="translate(-162.771)"/><path class="b" d="M98.613,80.228a2.422,2.422,0,0,0,3.425-3.425L91.985,66.752a2.422,2.422,0,0,0-3.425,3.425Z" transform="translate(-47.674 -47.674)"/><path class="b" d="M374.725,349.492a2.422,2.422,0,0,0-3.425,3.425l10.052,10.052a2.422,2.422,0,0,0,3.425-3.425Z" transform="translate(-251.778 -251.778)"/></g></svg>