<svg xmlns="http://www.w3.org/2000/svg" width="92.501" height="121.999" viewBox="0 0 92.501 121.999"><defs><style>.a{fill:#35b4ff;}.b{fill:#005386;}.c{fill:#fbfeff;}</style></defs><g transform="translate(-61.898 0)"><path class="a" d="M189.675,141.664l-11.1,6.216a1.552,1.552,0,0,1-2.28-1.656l2.48-12.482-9.343-8.64a1.551,1.551,0,0,1,.871-2.68l12.637-1.5,5.33-11.556a1.552,1.552,0,0,1,2.818,0l5.33,11.556,12.637,1.5a1.551,1.551,0,0,1,.871,2.68l-9.343,8.64,2.48,12.482a1.552,1.552,0,0,1-2.28,1.656Z" transform="translate(-81.527 -82.621)"/><path class="b" d="M158.536,55.258a1.923,1.923,0,1,0,1.734-3.432,34.742,34.742,0,0,0-43.1,52.314,1.923,1.923,0,0,0,3.035-2.362,30.9,30.9,0,0,1,38.334-46.521Z" transform="translate(-36.548 -36.625)"/><path class="b" d="M213.585,124.014a1.923,1.923,0,0,0-.849,2.583,30.9,30.9,0,0,1-46.524,38.328,1.923,1.923,0,1,0-2.361,3.035,34.742,34.742,0,0,0,52.318-43.1A1.923,1.923,0,0,0,213.585,124.014Z" transform="translate(-77.094 -94.306)"/><path class="b" d="M339.3,85.969c.48.424.954.87,1.409,1.325s.9.929,1.325,1.409a1.923,1.923,0,0,0,2.881-2.546c-.476-.539-.977-1.071-1.487-1.582s-1.043-1.011-1.582-1.487a1.923,1.923,0,0,0-2.547,2.881Z" transform="translate(-210.806 -62.923)"/><path class="c" d="M153.437,42.841l-2.529-4.148a2.706,2.706,0,0,1-.362-1.828l.754-4.79a6.521,6.521,0,0,0-2.617-6.314l-3.92-2.851a2.706,2.706,0,0,1-1.037-1.55l-1.142-4.718a6.522,6.522,0,0,0-4.824-4.825l-4.718-1.142a2.7,2.7,0,0,1-1.55-1.037l-2.852-3.921A6.52,6.52,0,0,0,122.326,3.1l-4.792.754a2.707,2.707,0,0,1-1.827-.362L111.558.962a6.524,6.524,0,0,0-6.819,0l-4.148,2.529a2.705,2.705,0,0,1-1.828.362L93.973,3.1A6.522,6.522,0,0,0,87.66,5.716l-2.851,3.92a2.707,2.707,0,0,1-1.55,1.037L78.54,11.815a6.523,6.523,0,0,0-4.825,4.824l-1.142,4.718a2.7,2.7,0,0,1-1.037,1.55L67.615,25.76A6.521,6.521,0,0,0,65,32.073l.754,4.792a2.706,2.706,0,0,1-.362,1.827l-2.53,4.149a6.524,6.524,0,0,0,0,6.818l2.529,4.148a2.705,2.705,0,0,1,.362,1.828L65,60.426a6.521,6.521,0,0,0,2.617,6.314l3.92,2.851a2.706,2.706,0,0,1,1.037,1.55l1.142,4.718a6.522,6.522,0,0,0,4.824,4.825l1.97.477L67.175,110.9a1.923,1.923,0,0,0,1.982,2.7l10.728-1.283,6.18,8.862a1.923,1.923,0,0,0,1.576.823c.06,0,.12,0,.18-.008a1.923,1.923,0,0,0,1.575-1.128l13.616-30.376,1.725,1.052a6.524,6.524,0,0,0,6.819,0l1.788-1.09,13.634,30.414a1.922,1.922,0,0,0,1.575,1.128c.06.006.121.008.18.008a1.923,1.923,0,0,0,1.576-.823l6.18-8.862,10.728,1.283a1.923,1.923,0,0,0,1.983-2.7l-13.34-29.757,1.9-.459a6.523,6.523,0,0,0,4.825-4.824l1.142-4.718a2.7,2.7,0,0,1,1.037-1.55l3.921-2.852a6.521,6.521,0,0,0,2.617-6.313l-.754-4.792a2.706,2.706,0,0,1,.362-1.827l2.53-4.149h0A6.523,6.523,0,0,0,153.437,42.841Zm-66.16,73.35-4.9-7.023a1.922,1.922,0,0,0-1.805-.809l-8.5,1.016,12.147-27.1a2.689,2.689,0,0,1,.585.585l2.852,3.921a6.609,6.609,0,0,0,.907,1.011l-6.394,14.263a1.922,1.922,0,1,0,3.508,1.573L92.05,89.418a6.58,6.58,0,0,0,1.92-.017l4.792-.754a2.7,2.7,0,0,1,.859.006Zm48.524-7.832a1.921,1.921,0,0,0-1.805.809l-4.9,7.023-12.35-27.55a2.707,2.707,0,0,1,.785.006l4.79.754a6.584,6.584,0,0,0,2,.006l6.376,14.223a1.922,1.922,0,1,0,3.508-1.573l-6.418-14.317a6.631,6.631,0,0,0,.851-.956l2.851-3.92a2.7,2.7,0,0,1,.647-.63L144.3,109.376Zm14.353-60.7-2.53,4.149a6.556,6.556,0,0,0-.878,4.427l.754,4.792a2.693,2.693,0,0,1-1.08,2.606L142.5,66.483a6.556,6.556,0,0,0-2.513,3.755l-1.142,4.718a2.693,2.693,0,0,1-1.992,1.992l-4.718,1.142a6.556,6.556,0,0,0-3.756,2.513l-2.851,3.92a2.691,2.691,0,0,1-2.607,1.08l-4.79-.754a6.557,6.557,0,0,0-4.427.878l-4.148,2.529a2.694,2.694,0,0,1-2.815,0l-4.149-2.53a6.554,6.554,0,0,0-4.427-.878l-4.792.754a2.692,2.692,0,0,1-2.606-1.08L87.915,80.6a6.556,6.556,0,0,0-3.755-2.513l-4.718-1.142a2.693,2.693,0,0,1-1.992-1.992l-1.142-4.718A6.555,6.555,0,0,0,73.8,66.481l-3.92-2.851a2.692,2.692,0,0,1-1.08-2.607l.754-4.791a6.556,6.556,0,0,0-.878-4.427l-2.529-4.148a2.692,2.692,0,0,1,0-2.815l2.53-4.149a6.556,6.556,0,0,0,.878-4.427L68.8,31.475a2.693,2.693,0,0,1,1.08-2.606L73.8,26.017a6.556,6.556,0,0,0,2.513-3.755l1.142-4.718a2.693,2.693,0,0,1,1.992-1.992l4.718-1.142A6.556,6.556,0,0,0,87.918,11.9l2.851-3.92A2.691,2.691,0,0,1,93.376,6.9l4.791.754a6.554,6.554,0,0,0,4.427-.878l4.148-2.529a2.694,2.694,0,0,1,2.815,0l4.149,2.53a6.553,6.553,0,0,0,4.427.878l4.792-.754a2.694,2.694,0,0,1,2.606,1.08l2.852,3.921a6.556,6.556,0,0,0,3.755,2.513l4.718,1.142a2.693,2.693,0,0,1,1.992,1.992l1.142,4.718a6.555,6.555,0,0,0,2.513,3.756l3.92,2.851a2.692,2.692,0,0,1,1.08,2.607l-.754,4.791a6.556,6.556,0,0,0,.878,4.427l2.529,4.148A2.694,2.694,0,0,1,150.154,47.658Z"/><path class="b" d="M153.437,42.841l-2.529-4.148a2.706,2.706,0,0,1-.362-1.828l.754-4.79a6.521,6.521,0,0,0-2.617-6.314l-3.92-2.851a2.706,2.706,0,0,1-1.037-1.55l-1.142-4.718a6.522,6.522,0,0,0-4.824-4.825l-4.718-1.142a2.7,2.7,0,0,1-1.55-1.037l-2.852-3.921A6.52,6.52,0,0,0,122.326,3.1l-4.792.754a2.707,2.707,0,0,1-1.827-.362L111.558.962a6.524,6.524,0,0,0-6.819,0l-4.148,2.529a2.705,2.705,0,0,1-1.828.362L93.973,3.1A6.522,6.522,0,0,0,87.66,5.716l-2.851,3.92a2.707,2.707,0,0,1-1.55,1.037L78.54,11.815a6.523,6.523,0,0,0-4.825,4.824l-1.142,4.718a2.7,2.7,0,0,1-1.037,1.55L67.615,25.76A6.521,6.521,0,0,0,65,32.073l.754,4.792a2.706,2.706,0,0,1-.362,1.827l-2.53,4.149a6.524,6.524,0,0,0,0,6.818l2.529,4.148a2.705,2.705,0,0,1,.362,1.828L65,60.426a6.521,6.521,0,0,0,2.617,6.314l3.92,2.851a2.706,2.706,0,0,1,1.037,1.55l1.142,4.718a6.522,6.522,0,0,0,4.824,4.825l1.97.477L67.175,110.9a1.923,1.923,0,0,0,1.982,2.7l10.728-1.283,6.18,8.862a1.923,1.923,0,0,0,1.576.823c.06,0,.12,0,.18-.008a1.923,1.923,0,0,0,1.575-1.128l13.616-30.376,1.725,1.052a6.524,6.524,0,0,0,6.819,0l1.788-1.09,13.634,30.414a1.922,1.922,0,0,0,1.575,1.128c.06.006.121.008.18.008a1.923,1.923,0,0,0,1.576-.823l6.18-8.862,10.728,1.283a1.923,1.923,0,0,0,1.983-2.7l-13.34-29.757,1.9-.459a6.523,6.523,0,0,0,4.825-4.824l1.142-4.718a2.7,2.7,0,0,1,1.037-1.55l3.921-2.852a6.521,6.521,0,0,0,2.617-6.313l-.754-4.792a2.706,2.706,0,0,1,.362-1.827l2.53-4.149h0A6.523,6.523,0,0,0,153.437,42.841Zm-66.16,73.35-4.9-7.023a1.922,1.922,0,0,0-1.805-.809l-8.5,1.016,12.147-27.1a2.689,2.689,0,0,1,.585.585l2.852,3.921a6.609,6.609,0,0,0,.907,1.011l-6.394,14.263a1.922,1.922,0,1,0,3.508,1.573L92.05,89.418a6.58,6.58,0,0,0,1.92-.017l4.792-.754a2.7,2.7,0,0,1,.859.006Zm48.524-7.832a1.921,1.921,0,0,0-1.805.809l-4.9,7.023-12.35-27.55a2.707,2.707,0,0,1,.785.006l4.79.754a6.584,6.584,0,0,0,2,.006l6.376,14.223a1.922,1.922,0,1,0,3.508-1.573l-6.418-14.317a6.631,6.631,0,0,0,.851-.956l2.851-3.92a2.7,2.7,0,0,1,.647-.63L144.3,109.376Zm14.353-60.7-2.53,4.149a6.556,6.556,0,0,0-.878,4.427l.754,4.792a2.693,2.693,0,0,1-1.08,2.606L142.5,66.483a6.556,6.556,0,0,0-2.513,3.755l-1.142,4.718a2.693,2.693,0,0,1-1.992,1.992l-4.718,1.142a6.556,6.556,0,0,0-3.756,2.513l-2.851,3.92a2.691,2.691,0,0,1-2.607,1.08l-4.79-.754a6.557,6.557,0,0,0-4.427.878l-4.148,2.529a2.694,2.694,0,0,1-2.815,0l-4.149-2.53a6.554,6.554,0,0,0-4.427-.878l-4.792.754a2.692,2.692,0,0,1-2.606-1.08L87.915,80.6a6.556,6.556,0,0,0-3.755-2.513l-4.718-1.142a2.693,2.693,0,0,1-1.992-1.992l-1.142-4.718A6.555,6.555,0,0,0,73.8,66.481l-3.92-2.851a2.692,2.692,0,0,1-1.08-2.607l.754-4.791a6.556,6.556,0,0,0-.878-4.427l-2.529-4.148a2.692,2.692,0,0,1,0-2.815l2.53-4.149a6.556,6.556,0,0,0,.878-4.427L68.8,31.475a2.693,2.693,0,0,1,1.08-2.606L73.8,26.017a6.556,6.556,0,0,0,2.513-3.755l1.142-4.718a2.693,2.693,0,0,1,1.992-1.992l4.718-1.142A6.556,6.556,0,0,0,87.918,11.9l2.851-3.92A2.691,2.691,0,0,1,93.376,6.9l4.791.754a6.554,6.554,0,0,0,4.427-.878l4.148-2.529a2.694,2.694,0,0,1,2.815,0l4.149,2.53a6.553,6.553,0,0,0,4.427.878l4.792-.754a2.694,2.694,0,0,1,2.606,1.08l2.852,3.921a6.556,6.556,0,0,0,3.755,2.513l4.718,1.142a2.693,2.693,0,0,1,1.992,1.992l1.142,4.718a6.555,6.555,0,0,0,2.513,3.756l3.92,2.851a2.692,2.692,0,0,1,1.08,2.607l-.754,4.791a6.556,6.556,0,0,0,.878,4.427l2.529,4.148A2.694,2.694,0,0,1,150.154,47.658Z" transform="translate(0 0)"/><path class="b" d="M161.969,120.367l8.553,7.91-2.27,11.426a3.486,3.486,0,0,0,3.4,4.157,3.476,3.476,0,0,0,1.7-.449l10.165-5.69,10.166,5.69a3.474,3.474,0,0,0,5.1-3.708l-2.27-11.426,8.553-7.91a3.474,3.474,0,0,0-1.949-6l-11.569-1.372-4.879-10.578a3.474,3.474,0,0,0-6.31,0l-4.88,10.579-11.569,1.372a3.474,3.474,0,0,0-1.95,6Zm15.04-3.68a1.923,1.923,0,0,0,1.52-1.1l4.993-10.825,4.993,10.825a1.923,1.923,0,0,0,1.52,1.1l11.839,1.4-8.753,8.094a1.923,1.923,0,0,0-.58,1.786l2.323,11.693-10.4-5.823a1.923,1.923,0,0,0-1.878,0l-10.4,5.823L174.5,127.97a1.921,1.921,0,0,0-.58-1.786l-8.752-8.094Z" transform="translate(-75.373 -76.475)"/></g></svg>