<svg xmlns="http://www.w3.org/2000/svg" width="150.732" height="120.97" viewBox="0 0 150.732 120.97"><defs><style>.a{fill:#35b4ff;}.b{fill:#005386;}</style></defs><g transform="translate(0.001 0.001)"><path class="a" d="M353.2,10l33.3,33.309L371.615,58.2,338.308,24.026Zm0,0" transform="translate(-238.711 -7.057)"/><path class="a" d="M63.2,38.473,25.483,76.2,10,60.724,47.725,23,63.2,38.473Zm0,0" transform="translate(-7.057 -16.23)"/><path class="b" d="M396.332,65.875a2.944,2.944,0,1,0-4.163,0A2.945,2.945,0,0,0,396.332,65.875Zm0,0" transform="translate(-276.106 -42.936)"/><path class="b" d="M118.441,86.588a2.944,2.944,0,1,0-4.163,0A2.945,2.945,0,0,0,118.441,86.588Zm0,0" transform="translate(-80.026 -57.553)"/><path class="b" d="M59.6,123.041l8.811-8.815a2.944,2.944,0,1,0-4.164-4.163l-8.811,8.815a2.944,2.944,0,0,0,4.164,4.163Zm0,0" transform="translate(-38.505 -77.053)"/><path class="b" d="M425.226,101.09a2.944,2.944,0,0,0,4.164-4.163l-5.873-5.873a2.944,2.944,0,1,0-4.164,4.163Zm0,0" transform="translate(-295.288 -63.64)"/><path class="b" d="M149.869,34.17,116.567.861a2.942,2.942,0,0,0-4.1-.061c-2.586,2.437-14.743,13.885-14.919,14.056l-.032.03c-2.88,2.88-5.714,4.163-9.192,4.163-7.109,0-12.556,2.008-17.079,6.292-3.709-3.512-7.912-5.328-13.778-5.934L42.749,4.689a2.944,2.944,0,0,0-4.164,0L.862,42.413A2.938,2.938,0,0,0,.8,46.5c.023.024.043.048.066.071S25.41,71.086,25.444,71.119l-1.04,1.04A10.294,10.294,0,0,0,31.8,89.738,10.291,10.291,0,0,0,42.207,100.15a10.286,10.286,0,0,0,10.409,10.405,10.3,10.3,0,0,0,17.587,7.4l1.042-1.042,1.042,1.042a10.3,10.3,0,0,0,17.588-7.4,10.287,10.287,0,0,0,10.4-10.406A10.3,10.3,0,0,0,110.69,89.738a10.294,10.294,0,0,0,7.393-17.579l-1.038-1.038c20.526-20.5-5.439,5.483,32.824-32.788a2.943,2.943,0,0,0,0-4.163ZM7.108,44.494l33.56-33.559,11.31,11.31L18.425,55.8Zm21.46,38.073a4.414,4.414,0,0,1,0-6.244l10.41-10.41a4.416,4.416,0,0,1,6.244,6.247L34.816,82.565a4.428,4.428,0,0,1-6.248,0Zm10.41,10.41a4.413,4.413,0,0,1,0-6.247L49.385,76.322a4.416,4.416,0,0,1,6.247,6.243s0,0,0,0L45.222,92.976a4.421,4.421,0,0,1-6.244,0Zm10.407,10.406a4.413,4.413,0,0,1,0-6.243l10.41-10.41a4.416,4.416,0,0,1,6.244,6.246h0L55.633,103.381a4.426,4.426,0,0,1-6.248,0Zm10.41,10.411a4.413,4.413,0,0,1,0-6.247L70.2,97.139a4.416,4.416,0,0,1,6.246,6.244l-10.409,10.41a4.423,4.423,0,0,1-6.244,0Zm22.9,0a4.419,4.419,0,0,1-6.243,0l-1.042-1.042,5.2-5.2a10.637,10.637,0,0,0,.964-1.118l1.116,1.117h0a4.412,4.412,0,0,1,0,6.246ZM113.92,82.565a4.426,4.426,0,0,1-6.247,0L94.143,69.036A2.944,2.944,0,0,0,89.979,73.2l13.532,13.532a4.416,4.416,0,0,1-6.244,6.246L83.735,79.442a2.944,2.944,0,0,0-4.164,4.164L93.1,97.139a4.415,4.415,0,0,1-3.123,7.537c-2.8,0-3.7-2.2-6.353-4.523A10.3,10.3,0,0,0,73.22,89.959a10.291,10.291,0,0,0-10.41-10.4A10.291,10.291,0,0,0,52.4,69.143a10.3,10.3,0,0,0-17.588-7.393l-5.207,5.207-7.015-6.994L57.242,25.307c4.291.49,7.179,1.724,9.828,4.186L58.751,37.81A11.776,11.776,0,0,0,75.407,54.463l8.328-8.327,30.184,30.187a4.419,4.419,0,0,1,0,6.242Zm-1.04-15.609L87.9,41.973l2.081-2.081a2.944,2.944,0,1,0-4.164-4.164L71.243,50.3a5.889,5.889,0,0,1-8.328-8.328L74.9,29.987c3.491-3.491,7.631-5.05,13.42-5.05a17.287,17.287,0,0,0,11.127-3.9l29.315,30.076L112.881,66.956ZM132.93,46.949,103.8,17.058,114.424,7.045l29.2,29.206Zm0,0" transform="translate(0 0)"/></g></svg>