<svg xmlns="http://www.w3.org/2000/svg" width="114.165" height="86.544" viewBox="0 0 114.165 86.544"><defs><style>.a{fill:#35b4ff;}.b{fill:#fff;}.c{fill:#005386;}</style></defs><g transform="translate(-8 -72)"><g transform="translate(9.841 73.841)"><path class="a" d="M126.482,320v3.683a7.365,7.365,0,0,1-7.365,7.365H23.365A7.365,7.365,0,0,1,16,323.683V320Z" transform="translate(-16 -264.759)"/><path class="b" d="M126.482,87.365v47.876H16V87.365A7.365,7.365,0,0,1,23.365,80h95.751A7.365,7.365,0,0,1,126.482,87.365Z" transform="translate(-16 -80)"/><path class="a" d="M225.009,379.048H199L202.913,368H221.1Z" transform="translate(-156.879 -301.711)"/><path class="a" d="M160,416h44.193v5.524H160Z" transform="translate(-126.855 -338.663)"/><rect class="b" width="33.011" height="49.07" rx="6" transform="translate(72.192 33.401)"/><path class="a" d="M380.89,229.524H369.841L368,224h14.731Z" transform="translate(-286.98 -190.855)"/></g><g transform="translate(8 72)"><path class="c" d="M112.958,72H17.207A9.216,9.216,0,0,0,8,81.207v51.558a9.216,9.216,0,0,0,9.207,9.207H53.27l-2.608,7.365H42.986a1.841,1.841,0,0,0-1.841,1.841V156.7a1.841,1.841,0,0,0,1.841,1.841h68.131a5.531,5.531,0,0,0,5.524-5.524V141.205a9.207,9.207,0,0,0,5.524-8.44V81.207A9.216,9.216,0,0,0,112.958,72ZM17.207,138.289a5.531,5.531,0,0,1-5.524-5.524v-1.841H79.813v7.365Zm62.606,3.683v7.365h-.541l-2.608-7.365Zm-4.447,7.365h-20.8l2.608-7.365H72.759Zm-30.539,5.524V153.02H79.813a5.487,5.487,0,0,0,.318,1.841Zm68.131-1.841a1.844,1.844,0,0,1-1.841,1.841H85.337A1.844,1.844,0,0,1,83.5,153.02V110.669a1.844,1.844,0,0,1,1.841-1.841h4.2l1.422,4.265a1.841,1.841,0,0,0,1.747,1.259h11.048a1.841,1.841,0,0,0,1.747-1.259l1.422-4.265h4.2a1.844,1.844,0,0,1,1.841,1.841ZM93.416,108.827h9.621l-.615,1.841H94.031Zm25.066,23.938a5.527,5.527,0,0,1-1.841,4.117V110.669a5.531,5.531,0,0,0-5.524-5.524H85.337a5.531,5.531,0,0,0-5.524,5.524v16.572H11.683V81.207a5.531,5.531,0,0,1,5.524-5.524h95.751a5.531,5.531,0,0,1,5.524,5.524Z" transform="translate(-8 -72)"/><path class="c" d="M54.731,336H41.841a1.841,1.841,0,0,0,0,3.683h12.89a1.841,1.841,0,0,0,0-3.683Z" transform="translate(-32.635 -275.235)"/><path class="c" d="M123.683,336h-1.841a1.841,1.841,0,0,0,0,3.683h1.841a1.841,1.841,0,1,0,0-3.683Z" transform="translate(-94.221 -275.235)"/></g></g></svg>